<svg width="40" height="41" viewBox="0 0 40 41" fill="none" xmlns="http://www.w3.org/2000/svg">
<g clip-path="url(#clip0_1_1532)">
<path d="M11.4163 15.1729C10.665 16.0551 10.1526 16.7527 9.62492 17.6185C8.24269 19.893 7.35921 22.6231 7.14839 25.2894C7.07232 26.2322 7.08866 27.5363 7.18358 28.4242C7.40687 30.5167 8.01261 32.5506 8.96025 34.3689C9.27759 34.9792 10.0005 36.1504 10.1229 36.256C10.1419 36.2744 10.1116 36.2127 10.0538 36.1245C9.96389 35.9851 9.9572 35.9624 10.0093 35.976C10.0802 35.9955 10.2544 35.9966 10.2727 35.9776C10.2788 35.9712 10.2681 35.9528 10.2469 35.9324C10.2279 35.9141 10.2234 35.8976 10.2379 35.8994C10.2524 35.8971 10.3332 35.9952 10.4165 36.1119C10.6662 36.4579 11.0727 36.967 11.2762 37.1832C11.3802 37.2954 11.4521 37.3646 11.4391 37.34C11.4176 37.303 11.4423 37.2943 11.5813 37.2939C11.6788 37.2942 11.7705 37.3175 11.8042 37.3459C11.876 37.4069 11.7736 37.2677 11.4096 36.8076C11.2563 36.6154 11.0432 36.333 10.9342 36.1794C10.7656 35.9439 10.7482 35.9069 10.8197 35.9513C10.8659 35.9795 10.9347 36.0011 10.9762 36.0003C11.0176 35.9954 11.1628 35.997 11.2955 35.9988C11.5383 36.0048 11.5403 36.0027 11.5263 35.9283C11.5213 35.8869 11.5759 36.0166 11.6546 36.2143C11.8189 36.6448 12.1305 37.3795 12.1538 37.4019C12.1622 37.4101 12.1618 37.3893 12.155 37.3583C12.1395 37.3109 12.1559 37.3023 12.2887 37.3083C12.3925 37.3106 12.4509 37.3303 12.4702 37.361C12.5089 37.4267 12.4585 37.2928 12.1843 36.5615C12.0614 36.2319 11.9665 35.9537 11.9726 35.9474C11.9807 35.9389 11.9955 35.9532 12.0085 35.9778C12.0236 36.0087 12.0778 36.0201 12.1689 36.0144L12.3056 36.0078L12.369 36.1663C12.4917 36.4876 12.4535 36.3411 12.2769 35.8175C11.2664 32.8577 10.9969 29.9241 11.4757 27.1784C11.689 25.9532 12.1549 24.4996 12.6705 23.4515C13.6978 21.3637 15.2549 19.6273 17.133 18.4762C18.7448 17.4875 20.4439 16.916 22.453 16.6916C22.9185 16.6398 24.3628 16.5872 24.3781 16.6222C24.3825 16.6345 24.3724 17.8644 24.3553 19.3557C24.3197 22.3776 24.318 22.7011 24.3388 22.7008C24.3533 22.7026 26.7654 21.1957 27.6988 20.6026C27.9506 20.4426 29.2507 19.6253 30.5857 18.7887C31.9227 17.95 33.3354 17.0622 33.7285 16.8147C34.1216 16.5672 35.5568 15.6645 36.9183 14.8087C38.282 13.955 39.4344 13.215 39.4831 13.1644L39.5724 13.0715L39.4138 12.9188C39.327 12.8353 39.1207 12.6814 38.9568 12.5806C38.7929 12.4757 38.1038 12.0401 37.4231 11.6125C36.7424 11.1809 35.6352 10.481 34.9587 10.0534C34.2822 9.62582 33.1771 8.92798 32.5005 8.50039C31.824 8.0728 30.7189 7.37495 30.0424 6.94736C29.3659 6.51977 28.2587 5.81989 27.5759 5.39034C26.8973 4.96071 25.9602 4.36771 25.4897 4.07332C25.019 3.77478 24.6218 3.51848 24.6028 3.50016C24.5837 3.48184 24.5608 3.47602 24.5507 3.48657C24.5344 3.50345 24.4647 8.39854 24.4697 9.15119L24.4703 9.38343L23.9295 9.40341C22.1059 9.46901 20.3763 9.7714 18.8213 10.2905C16.4197 11.0922 14.4342 12.2617 12.6105 13.9448C12.2849 14.245 11.6471 14.8992 11.4163 15.1729Z" fill="white"/>
</g>
<defs>
<clipPath id="clip0_1_1532">
<rect width="37.4806" height="18.8499" fill="white" transform="translate(0 27.0049) rotate(-46.096)"/>
</clipPath>
</defs>
</svg>
