<svg width="202" height="370" viewBox="0 0 202 370" fill="none" xmlns="http://www.w3.org/2000/svg">
<g opacity="0.61">
<circle cx="3" cy="3" r="3" transform="matrix(0 -1 -1 0 6 370)" fill="#868686" fill-opacity="0.9"/>
<circle cx="3" cy="3" r="3" transform="matrix(0 -1 -1 0 20 370)" fill="#868686" fill-opacity="0.9"/>
<circle cx="3" cy="3" r="3" transform="matrix(0 -1 -1 0 34 370)" fill="#868686" fill-opacity="0.9"/>
<circle cx="3" cy="3" r="3" transform="matrix(0 -1 -1 0 48 370)" fill="#868686" fill-opacity="0.9"/>
<circle cx="3" cy="3" r="3" transform="matrix(0 -1 -1 0 62 370)" fill="#868686" fill-opacity="0.9"/>
<circle cx="3" cy="3" r="3" transform="matrix(0 -1 -1 0 76 370)" fill="#868686" fill-opacity="0.9"/>
<circle cx="3" cy="3" r="3" transform="matrix(0 -1 -1 0 90 370)" fill="#868686" fill-opacity="0.9"/>
<circle cx="3" cy="3" r="3" transform="matrix(0 -1 -1 0 104 370)" fill="#868686" fill-opacity="0.9"/>
<circle cx="3" cy="3" r="3" transform="matrix(0 -1 -1 0 118 370)" fill="#868686" fill-opacity="0.9"/>
<circle cx="3" cy="3" r="3" transform="matrix(0 -1 -1 0 132 370)" fill="#868686" fill-opacity="0.9"/>
<circle cx="3" cy="3" r="3" transform="matrix(0 -1 -1 0 146 370)" fill="#868686" fill-opacity="0.9"/>
<circle cx="3" cy="3" r="3" transform="matrix(0 -1 -1 0 160 370)" fill="#868686" fill-opacity="0.9"/>
<circle cx="3" cy="3" r="3" transform="matrix(0 -1 -1 0 174 370)" fill="#868686" fill-opacity="0.9"/>
<circle cx="3" cy="3" r="3" transform="matrix(0 -1 -1 0 188 370)" fill="#868686" fill-opacity="0.9"/>
<circle cx="3" cy="3" r="3" transform="matrix(0 -1 -1 0 202 370)" fill="#868686" fill-opacity="0.9"/>
<circle cx="3" cy="3" r="3" transform="matrix(0 -1 -1 0 6 356)" fill="#868686" fill-opacity="0.9"/>
<circle cx="3" cy="3" r="3" transform="matrix(0 -1 -1 0 20 356)" fill="#868686" fill-opacity="0.9"/>
<circle cx="3" cy="3" r="3" transform="matrix(0 -1 -1 0 34 356)" fill="#868686" fill-opacity="0.9"/>
<circle cx="3" cy="3" r="3" transform="matrix(0 -1 -1 0 48 356)" fill="#868686" fill-opacity="0.9"/>
<circle cx="3" cy="3" r="3" transform="matrix(0 -1 -1 0 62 356)" fill="#868686" fill-opacity="0.9"/>
<circle cx="3" cy="3" r="3" transform="matrix(0 -1 -1 0 76 356)" fill="#868686" fill-opacity="0.9"/>
<circle cx="3" cy="3" r="3" transform="matrix(0 -1 -1 0 90 356)" fill="#868686" fill-opacity="0.9"/>
<circle cx="3" cy="3" r="3" transform="matrix(0 -1 -1 0 104 356)" fill="#868686" fill-opacity="0.9"/>
<circle cx="3" cy="3" r="3" transform="matrix(0 -1 -1 0 118 356)" fill="#868686" fill-opacity="0.9"/>
<circle cx="3" cy="3" r="3" transform="matrix(0 -1 -1 0 132 356)" fill="#868686" fill-opacity="0.9"/>
<circle cx="3" cy="3" r="3" transform="matrix(0 -1 -1 0 146 356)" fill="#868686" fill-opacity="0.9"/>
<circle cx="3" cy="3" r="3" transform="matrix(0 -1 -1 0 160 356)" fill="#868686" fill-opacity="0.9"/>
<circle cx="3" cy="3" r="3" transform="matrix(0 -1 -1 0 174 356)" fill="#868686" fill-opacity="0.9"/>
<circle cx="3" cy="3" r="3" transform="matrix(0 -1 -1 0 188 356)" fill="#868686" fill-opacity="0.9"/>
<circle cx="3" cy="3" r="3" transform="matrix(0 -1 -1 0 202 356)" fill="#868686" fill-opacity="0.9"/>
<circle cx="3" cy="3" r="3" transform="matrix(0 -1 -1 0 6 342)" fill="#868686" fill-opacity="0.9"/>
<circle cx="3" cy="3" r="3" transform="matrix(0 -1 -1 0 20 342)" fill="#868686" fill-opacity="0.9"/>
<circle cx="3" cy="3" r="3" transform="matrix(0 -1 -1 0 34 342)" fill="#868686" fill-opacity="0.9"/>
<circle cx="3" cy="3" r="3" transform="matrix(0 -1 -1 0 48 342)" fill="#868686" fill-opacity="0.9"/>
<circle cx="3" cy="3" r="3" transform="matrix(0 -1 -1 0 62 342)" fill="#868686" fill-opacity="0.9"/>
<circle cx="3" cy="3" r="3" transform="matrix(0 -1 -1 0 76 342)" fill="#868686" fill-opacity="0.9"/>
<circle cx="3" cy="3" r="3" transform="matrix(0 -1 -1 0 90 342)" fill="#868686" fill-opacity="0.9"/>
<circle cx="3" cy="3" r="3" transform="matrix(0 -1 -1 0 104 342)" fill="#868686" fill-opacity="0.9"/>
<circle cx="3" cy="3" r="3" transform="matrix(0 -1 -1 0 118 342)" fill="#868686" fill-opacity="0.9"/>
<circle cx="3" cy="3" r="3" transform="matrix(0 -1 -1 0 132 342)" fill="#868686" fill-opacity="0.9"/>
<circle cx="3" cy="3" r="3" transform="matrix(0 -1 -1 0 146 342)" fill="#868686" fill-opacity="0.9"/>
<circle cx="3" cy="3" r="3" transform="matrix(0 -1 -1 0 160 342)" fill="#868686" fill-opacity="0.9"/>
<circle cx="3" cy="3" r="3" transform="matrix(0 -1 -1 0 174 342)" fill="#868686" fill-opacity="0.9"/>
<circle cx="3" cy="3" r="3" transform="matrix(0 -1 -1 0 188 342)" fill="#868686" fill-opacity="0.9"/>
<circle cx="3" cy="3" r="3" transform="matrix(0 -1 -1 0 202 342)" fill="#868686" fill-opacity="0.9"/>
<circle cx="3" cy="3" r="3" transform="matrix(0 -1 -1 0 6 328)" fill="#868686" fill-opacity="0.9"/>
<circle cx="3" cy="3" r="3" transform="matrix(0 -1 -1 0 20 328)" fill="#868686" fill-opacity="0.9"/>
<circle cx="3" cy="3" r="3" transform="matrix(0 -1 -1 0 34 328)" fill="#868686" fill-opacity="0.9"/>
<circle cx="3" cy="3" r="3" transform="matrix(0 -1 -1 0 48 328)" fill="#868686" fill-opacity="0.9"/>
<circle cx="3" cy="3" r="3" transform="matrix(0 -1 -1 0 62 328)" fill="#868686" fill-opacity="0.9"/>
<circle cx="3" cy="3" r="3" transform="matrix(0 -1 -1 0 76 328)" fill="#868686" fill-opacity="0.9"/>
<circle cx="3" cy="3" r="3" transform="matrix(0 -1 -1 0 90 328)" fill="#868686" fill-opacity="0.9"/>
<circle cx="3" cy="3" r="3" transform="matrix(0 -1 -1 0 104 328)" fill="#868686" fill-opacity="0.9"/>
<circle cx="3" cy="3" r="3" transform="matrix(0 -1 -1 0 118 328)" fill="#868686" fill-opacity="0.9"/>
<circle cx="3" cy="3" r="3" transform="matrix(0 -1 -1 0 132 328)" fill="#868686" fill-opacity="0.9"/>
<circle cx="3" cy="3" r="3" transform="matrix(0 -1 -1 0 146 328)" fill="#868686" fill-opacity="0.9"/>
<circle cx="3" cy="3" r="3" transform="matrix(0 -1 -1 0 160 328)" fill="#868686" fill-opacity="0.9"/>
<circle cx="3" cy="3" r="3" transform="matrix(0 -1 -1 0 174 328)" fill="#868686" fill-opacity="0.9"/>
<circle cx="3" cy="3" r="3" transform="matrix(0 -1 -1 0 188 328)" fill="#868686" fill-opacity="0.9"/>
<circle cx="3" cy="3" r="3" transform="matrix(0 -1 -1 0 202 328)" fill="#868686" fill-opacity="0.9"/>
<circle cx="3" cy="3" r="3" transform="matrix(0 -1 -1 0 6 314)" fill="#868686" fill-opacity="0.9"/>
<circle cx="3" cy="3" r="3" transform="matrix(0 -1 -1 0 20 314)" fill="#868686" fill-opacity="0.9"/>
<circle cx="3" cy="3" r="3" transform="matrix(0 -1 -1 0 34 314)" fill="#868686" fill-opacity="0.9"/>
<circle cx="3" cy="3" r="3" transform="matrix(0 -1 -1 0 48 314)" fill="#868686" fill-opacity="0.9"/>
<circle cx="3" cy="3" r="3" transform="matrix(0 -1 -1 0 62 314)" fill="#868686" fill-opacity="0.9"/>
<circle cx="3" cy="3" r="3" transform="matrix(0 -1 -1 0 76 314)" fill="#868686" fill-opacity="0.9"/>
<circle cx="3" cy="3" r="3" transform="matrix(0 -1 -1 0 90 314)" fill="#868686" fill-opacity="0.9"/>
<circle cx="3" cy="3" r="3" transform="matrix(0 -1 -1 0 104 314)" fill="#868686" fill-opacity="0.9"/>
<circle cx="3" cy="3" r="3" transform="matrix(0 -1 -1 0 118 314)" fill="#868686" fill-opacity="0.9"/>
<circle cx="3" cy="3" r="3" transform="matrix(0 -1 -1 0 132 314)" fill="#868686" fill-opacity="0.9"/>
<circle cx="3" cy="3" r="3" transform="matrix(0 -1 -1 0 146 314)" fill="#868686" fill-opacity="0.9"/>
<circle cx="3" cy="3" r="3" transform="matrix(0 -1 -1 0 160 314)" fill="#868686" fill-opacity="0.9"/>
<circle cx="3" cy="3" r="3" transform="matrix(0 -1 -1 0 174 314)" fill="#868686" fill-opacity="0.9"/>
<circle cx="3" cy="3" r="3" transform="matrix(0 -1 -1 0 188 314)" fill="#868686" fill-opacity="0.9"/>
<circle cx="3" cy="3" r="3" transform="matrix(0 -1 -1 0 202 314)" fill="#868686" fill-opacity="0.9"/>
<circle cx="3" cy="3" r="3" transform="matrix(0 -1 -1 0 6 300)" fill="#868686" fill-opacity="0.9"/>
<circle cx="3" cy="3" r="3" transform="matrix(0 -1 -1 0 20 300)" fill="#868686" fill-opacity="0.9"/>
<circle cx="3" cy="3" r="3" transform="matrix(0 -1 -1 0 34 300)" fill="#868686" fill-opacity="0.9"/>
<circle cx="3" cy="3" r="3" transform="matrix(0 -1 -1 0 48 300)" fill="#868686" fill-opacity="0.9"/>
<circle cx="3" cy="3" r="3" transform="matrix(0 -1 -1 0 62 300)" fill="#868686" fill-opacity="0.9"/>
<circle cx="3" cy="3" r="3" transform="matrix(0 -1 -1 0 76 300)" fill="#868686" fill-opacity="0.9"/>
<circle cx="3" cy="3" r="3" transform="matrix(0 -1 -1 0 90 300)" fill="#868686" fill-opacity="0.9"/>
<circle cx="3" cy="3" r="3" transform="matrix(0 -1 -1 0 104 300)" fill="#868686" fill-opacity="0.9"/>
<circle cx="3" cy="3" r="3" transform="matrix(0 -1 -1 0 118 300)" fill="#868686" fill-opacity="0.9"/>
<circle cx="3" cy="3" r="3" transform="matrix(0 -1 -1 0 132 300)" fill="#868686" fill-opacity="0.9"/>
<circle cx="3" cy="3" r="3" transform="matrix(0 -1 -1 0 146 300)" fill="#868686" fill-opacity="0.9"/>
<circle cx="3" cy="3" r="3" transform="matrix(0 -1 -1 0 160 300)" fill="#868686" fill-opacity="0.9"/>
<circle cx="3" cy="3" r="3" transform="matrix(0 -1 -1 0 174 300)" fill="#868686" fill-opacity="0.9"/>
<circle cx="3" cy="3" r="3" transform="matrix(0 -1 -1 0 188 300)" fill="#868686" fill-opacity="0.9"/>
<circle cx="3" cy="3" r="3" transform="matrix(0 -1 -1 0 202 300)" fill="#868686" fill-opacity="0.9"/>
<circle cx="3" cy="3" r="3" transform="matrix(0 -1 -1 0 6 286)" fill="#868686" fill-opacity="0.9"/>
<circle cx="3" cy="3" r="3" transform="matrix(0 -1 -1 0 20 286)" fill="#868686" fill-opacity="0.9"/>
<circle cx="3" cy="3" r="3" transform="matrix(0 -1 -1 0 34 286)" fill="#868686" fill-opacity="0.9"/>
<circle cx="3" cy="3" r="3" transform="matrix(0 -1 -1 0 48 286)" fill="#868686" fill-opacity="0.9"/>
<circle cx="3" cy="3" r="3" transform="matrix(0 -1 -1 0 62 286)" fill="#868686" fill-opacity="0.9"/>
<circle cx="3" cy="3" r="3" transform="matrix(0 -1 -1 0 76 286)" fill="#868686" fill-opacity="0.9"/>
<circle cx="3" cy="3" r="3" transform="matrix(0 -1 -1 0 90 286)" fill="#868686" fill-opacity="0.9"/>
<circle cx="3" cy="3" r="3" transform="matrix(0 -1 -1 0 104 286)" fill="#868686" fill-opacity="0.9"/>
<circle cx="3" cy="3" r="3" transform="matrix(0 -1 -1 0 118 286)" fill="#868686" fill-opacity="0.9"/>
<circle cx="3" cy="3" r="3" transform="matrix(0 -1 -1 0 132 286)" fill="#868686" fill-opacity="0.9"/>
<circle cx="3" cy="3" r="3" transform="matrix(0 -1 -1 0 146 286)" fill="#868686" fill-opacity="0.9"/>
<circle cx="3" cy="3" r="3" transform="matrix(0 -1 -1 0 160 286)" fill="#868686" fill-opacity="0.9"/>
<circle cx="3" cy="3" r="3" transform="matrix(0 -1 -1 0 174 286)" fill="#868686" fill-opacity="0.9"/>
<circle cx="3" cy="3" r="3" transform="matrix(0 -1 -1 0 188 286)" fill="#868686" fill-opacity="0.9"/>
<circle cx="3" cy="3" r="3" transform="matrix(0 -1 -1 0 202 286)" fill="#868686" fill-opacity="0.9"/>
<circle cx="3" cy="3" r="3" transform="matrix(0 -1 -1 0 6 272)" fill="#868686" fill-opacity="0.9"/>
<circle cx="3" cy="3" r="3" transform="matrix(0 -1 -1 0 20 272)" fill="#868686" fill-opacity="0.9"/>
<circle cx="3" cy="3" r="3" transform="matrix(0 -1 -1 0 34 272)" fill="#868686" fill-opacity="0.9"/>
<circle cx="3" cy="3" r="3" transform="matrix(0 -1 -1 0 48 272)" fill="#868686" fill-opacity="0.9"/>
<circle cx="3" cy="3" r="3" transform="matrix(0 -1 -1 0 62 272)" fill="#868686" fill-opacity="0.9"/>
<circle cx="3" cy="3" r="3" transform="matrix(0 -1 -1 0 76 272)" fill="#868686" fill-opacity="0.9"/>
<circle cx="3" cy="3" r="3" transform="matrix(0 -1 -1 0 90 272)" fill="#868686" fill-opacity="0.9"/>
<circle cx="3" cy="3" r="3" transform="matrix(0 -1 -1 0 104 272)" fill="#868686" fill-opacity="0.9"/>
<circle cx="3" cy="3" r="3" transform="matrix(0 -1 -1 0 118 272)" fill="#868686" fill-opacity="0.9"/>
<circle cx="3" cy="3" r="3" transform="matrix(0 -1 -1 0 132 272)" fill="#868686" fill-opacity="0.9"/>
<circle cx="3" cy="3" r="3" transform="matrix(0 -1 -1 0 146 272)" fill="#868686" fill-opacity="0.9"/>
<circle cx="3" cy="3" r="3" transform="matrix(0 -1 -1 0 160 272)" fill="#868686" fill-opacity="0.9"/>
<circle cx="3" cy="3" r="3" transform="matrix(0 -1 -1 0 174 272)" fill="#868686" fill-opacity="0.9"/>
<circle cx="3" cy="3" r="3" transform="matrix(0 -1 -1 0 188 272)" fill="#868686" fill-opacity="0.9"/>
<circle cx="3" cy="3" r="3" transform="matrix(0 -1 -1 0 202 272)" fill="#868686" fill-opacity="0.9"/>
<circle cx="3" cy="3" r="3" transform="matrix(0 -1 -1 0 6 258)" fill="#868686" fill-opacity="0.9"/>
<circle cx="3" cy="3" r="3" transform="matrix(0 -1 -1 0 20 258)" fill="#868686" fill-opacity="0.9"/>
<circle cx="3" cy="3" r="3" transform="matrix(0 -1 -1 0 34 258)" fill="#868686" fill-opacity="0.9"/>
<circle cx="3" cy="3" r="3" transform="matrix(0 -1 -1 0 48 258)" fill="#868686" fill-opacity="0.9"/>
<circle cx="3" cy="3" r="3" transform="matrix(0 -1 -1 0 62 258)" fill="#868686" fill-opacity="0.9"/>
<circle cx="3" cy="3" r="3" transform="matrix(0 -1 -1 0 76 258)" fill="#868686" fill-opacity="0.9"/>
<circle cx="3" cy="3" r="3" transform="matrix(0 -1 -1 0 90 258)" fill="#868686" fill-opacity="0.9"/>
<circle cx="3" cy="3" r="3" transform="matrix(0 -1 -1 0 104 258)" fill="#868686" fill-opacity="0.9"/>
<circle cx="3" cy="3" r="3" transform="matrix(0 -1 -1 0 118 258)" fill="#868686" fill-opacity="0.9"/>
<circle cx="3" cy="3" r="3" transform="matrix(0 -1 -1 0 132 258)" fill="#868686" fill-opacity="0.9"/>
<circle cx="3" cy="3" r="3" transform="matrix(0 -1 -1 0 146 258)" fill="#868686" fill-opacity="0.9"/>
<circle cx="3" cy="3" r="3" transform="matrix(0 -1 -1 0 160 258)" fill="#868686" fill-opacity="0.9"/>
<circle cx="3" cy="3" r="3" transform="matrix(0 -1 -1 0 174 258)" fill="#868686" fill-opacity="0.9"/>
<circle cx="3" cy="3" r="3" transform="matrix(0 -1 -1 0 188 258)" fill="#868686" fill-opacity="0.9"/>
<circle cx="3" cy="3" r="3" transform="matrix(0 -1 -1 0 202 258)" fill="#868686" fill-opacity="0.9"/>
<circle cx="3" cy="3" r="3" transform="matrix(0 -1 -1 0 6 244)" fill="#868686" fill-opacity="0.9"/>
<circle cx="3" cy="3" r="3" transform="matrix(0 -1 -1 0 20 244)" fill="#868686" fill-opacity="0.9"/>
<circle cx="3" cy="3" r="3" transform="matrix(0 -1 -1 0 34 244)" fill="#868686" fill-opacity="0.9"/>
<circle cx="3" cy="3" r="3" transform="matrix(0 -1 -1 0 48 244)" fill="#868686" fill-opacity="0.9"/>
<circle cx="3" cy="3" r="3" transform="matrix(0 -1 -1 0 62 244)" fill="#868686" fill-opacity="0.9"/>
<circle cx="3" cy="3" r="3" transform="matrix(0 -1 -1 0 76 244)" fill="#868686" fill-opacity="0.9"/>
<circle cx="3" cy="3" r="3" transform="matrix(0 -1 -1 0 90 244)" fill="#868686" fill-opacity="0.9"/>
<circle cx="3" cy="3" r="3" transform="matrix(0 -1 -1 0 104 244)" fill="#868686" fill-opacity="0.9"/>
<circle cx="3" cy="3" r="3" transform="matrix(0 -1 -1 0 118 244)" fill="#868686" fill-opacity="0.9"/>
<circle cx="3" cy="3" r="3" transform="matrix(0 -1 -1 0 132 244)" fill="#868686" fill-opacity="0.9"/>
<circle cx="3" cy="3" r="3" transform="matrix(0 -1 -1 0 146 244)" fill="#868686" fill-opacity="0.9"/>
<circle cx="3" cy="3" r="3" transform="matrix(0 -1 -1 0 160 244)" fill="#868686" fill-opacity="0.9"/>
<circle cx="3" cy="3" r="3" transform="matrix(0 -1 -1 0 174 244)" fill="#868686" fill-opacity="0.9"/>
<circle cx="3" cy="3" r="3" transform="matrix(0 -1 -1 0 188 244)" fill="#868686" fill-opacity="0.9"/>
<circle cx="3" cy="3" r="3" transform="matrix(0 -1 -1 0 202 244)" fill="#868686" fill-opacity="0.9"/>
<circle cx="3" cy="3" r="3" transform="matrix(0 -1 -1 0 6 230)" fill="#868686" fill-opacity="0.9"/>
<circle cx="3" cy="3" r="3" transform="matrix(0 -1 -1 0 20 230)" fill="#868686" fill-opacity="0.9"/>
<circle cx="3" cy="3" r="3" transform="matrix(0 -1 -1 0 34 230)" fill="#868686" fill-opacity="0.9"/>
<circle cx="3" cy="3" r="3" transform="matrix(0 -1 -1 0 48 230)" fill="#868686" fill-opacity="0.9"/>
<circle cx="3" cy="3" r="3" transform="matrix(0 -1 -1 0 62 230)" fill="#868686" fill-opacity="0.9"/>
<circle cx="3" cy="3" r="3" transform="matrix(0 -1 -1 0 76 230)" fill="#868686" fill-opacity="0.9"/>
<circle cx="3" cy="3" r="3" transform="matrix(0 -1 -1 0 90 230)" fill="#868686" fill-opacity="0.9"/>
<circle cx="3" cy="3" r="3" transform="matrix(0 -1 -1 0 104 230)" fill="#868686" fill-opacity="0.9"/>
<circle cx="3" cy="3" r="3" transform="matrix(0 -1 -1 0 118 230)" fill="#868686" fill-opacity="0.9"/>
<circle cx="3" cy="3" r="3" transform="matrix(0 -1 -1 0 132 230)" fill="#868686" fill-opacity="0.9"/>
<circle cx="3" cy="3" r="3" transform="matrix(0 -1 -1 0 146 230)" fill="#868686" fill-opacity="0.9"/>
<circle cx="3" cy="3" r="3" transform="matrix(0 -1 -1 0 160 230)" fill="#868686" fill-opacity="0.9"/>
<circle cx="3" cy="3" r="3" transform="matrix(0 -1 -1 0 174 230)" fill="#868686" fill-opacity="0.9"/>
<circle cx="3" cy="3" r="3" transform="matrix(0 -1 -1 0 188 230)" fill="#868686" fill-opacity="0.9"/>
<circle cx="3" cy="3" r="3" transform="matrix(0 -1 -1 0 202 230)" fill="#868686" fill-opacity="0.9"/>
<circle cx="3" cy="3" r="3" transform="matrix(0 -1 -1 0 6 216)" fill="#868686" fill-opacity="0.9"/>
<circle cx="3" cy="3" r="3" transform="matrix(0 -1 -1 0 20 216)" fill="#868686" fill-opacity="0.9"/>
<circle cx="3" cy="3" r="3" transform="matrix(0 -1 -1 0 34 216)" fill="#868686" fill-opacity="0.9"/>
<circle cx="3" cy="3" r="3" transform="matrix(0 -1 -1 0 48 216)" fill="#868686" fill-opacity="0.9"/>
<circle cx="3" cy="3" r="3" transform="matrix(0 -1 -1 0 62 216)" fill="#868686" fill-opacity="0.9"/>
<circle cx="3" cy="3" r="3" transform="matrix(0 -1 -1 0 76 216)" fill="#868686" fill-opacity="0.9"/>
<circle cx="3" cy="3" r="3" transform="matrix(0 -1 -1 0 90 216)" fill="#868686" fill-opacity="0.9"/>
<circle cx="3" cy="3" r="3" transform="matrix(0 -1 -1 0 104 216)" fill="#868686" fill-opacity="0.9"/>
<circle cx="3" cy="3" r="3" transform="matrix(0 -1 -1 0 118 216)" fill="#868686" fill-opacity="0.9"/>
<circle cx="3" cy="3" r="3" transform="matrix(0 -1 -1 0 132 216)" fill="#868686" fill-opacity="0.9"/>
<circle cx="3" cy="3" r="3" transform="matrix(0 -1 -1 0 146 216)" fill="#868686" fill-opacity="0.9"/>
<circle cx="3" cy="3" r="3" transform="matrix(0 -1 -1 0 160 216)" fill="#868686" fill-opacity="0.9"/>
<circle cx="3" cy="3" r="3" transform="matrix(0 -1 -1 0 174 216)" fill="#868686" fill-opacity="0.9"/>
<circle cx="3" cy="3" r="3" transform="matrix(0 -1 -1 0 188 216)" fill="#868686" fill-opacity="0.9"/>
<circle cx="3" cy="3" r="3" transform="matrix(0 -1 -1 0 202 216)" fill="#868686" fill-opacity="0.9"/>
<circle cx="3" cy="3" r="3" transform="matrix(0 -1 -1 0 6 202)" fill="#868686" fill-opacity="0.9"/>
<circle cx="3" cy="3" r="3" transform="matrix(0 -1 -1 0 20 202)" fill="#868686" fill-opacity="0.9"/>
<circle cx="3" cy="3" r="3" transform="matrix(0 -1 -1 0 34 202)" fill="#868686" fill-opacity="0.9"/>
<circle cx="3" cy="3" r="3" transform="matrix(0 -1 -1 0 48 202)" fill="#868686" fill-opacity="0.9"/>
<circle cx="3" cy="3" r="3" transform="matrix(0 -1 -1 0 62 202)" fill="#868686" fill-opacity="0.9"/>
<circle cx="3" cy="3" r="3" transform="matrix(0 -1 -1 0 76 202)" fill="#868686" fill-opacity="0.9"/>
<circle cx="3" cy="3" r="3" transform="matrix(0 -1 -1 0 90 202)" fill="#868686" fill-opacity="0.9"/>
<circle cx="3" cy="3" r="3" transform="matrix(0 -1 -1 0 104 202)" fill="#868686" fill-opacity="0.9"/>
<circle cx="3" cy="3" r="3" transform="matrix(0 -1 -1 0 118 202)" fill="#868686" fill-opacity="0.9"/>
<circle cx="3" cy="3" r="3" transform="matrix(0 -1 -1 0 132 202)" fill="#868686" fill-opacity="0.9"/>
<circle cx="3" cy="3" r="3" transform="matrix(0 -1 -1 0 146 202)" fill="#868686" fill-opacity="0.9"/>
<circle cx="3" cy="3" r="3" transform="matrix(0 -1 -1 0 160 202)" fill="#868686" fill-opacity="0.9"/>
<circle cx="3" cy="3" r="3" transform="matrix(0 -1 -1 0 174 202)" fill="#868686" fill-opacity="0.9"/>
<circle cx="3" cy="3" r="3" transform="matrix(0 -1 -1 0 188 202)" fill="#868686" fill-opacity="0.9"/>
<circle cx="3" cy="3" r="3" transform="matrix(0 -1 -1 0 202 202)" fill="#868686" fill-opacity="0.9"/>
<circle cx="3" cy="3" r="3" transform="matrix(0 -1 -1 0 6 188)" fill="#868686" fill-opacity="0.9"/>
<circle cx="3" cy="3" r="3" transform="matrix(0 -1 -1 0 20 188)" fill="#868686" fill-opacity="0.9"/>
<circle cx="3" cy="3" r="3" transform="matrix(0 -1 -1 0 34 188)" fill="#868686" fill-opacity="0.9"/>
<circle cx="3" cy="3" r="3" transform="matrix(0 -1 -1 0 48 188)" fill="#868686" fill-opacity="0.9"/>
<circle cx="3" cy="3" r="3" transform="matrix(0 -1 -1 0 62 188)" fill="#868686" fill-opacity="0.9"/>
<circle cx="3" cy="3" r="3" transform="matrix(0 -1 -1 0 76 188)" fill="#868686" fill-opacity="0.9"/>
<circle cx="3" cy="3" r="3" transform="matrix(0 -1 -1 0 90 188)" fill="#868686" fill-opacity="0.9"/>
<circle cx="3" cy="3" r="3" transform="matrix(0 -1 -1 0 104 188)" fill="#868686" fill-opacity="0.9"/>
<circle cx="3" cy="3" r="3" transform="matrix(0 -1 -1 0 118 188)" fill="#868686" fill-opacity="0.9"/>
<circle cx="3" cy="3" r="3" transform="matrix(0 -1 -1 0 132 188)" fill="#868686" fill-opacity="0.9"/>
<circle cx="3" cy="3" r="3" transform="matrix(0 -1 -1 0 146 188)" fill="#868686" fill-opacity="0.9"/>
<circle cx="3" cy="3" r="3" transform="matrix(0 -1 -1 0 160 188)" fill="#868686" fill-opacity="0.9"/>
<circle cx="3" cy="3" r="3" transform="matrix(0 -1 -1 0 174 188)" fill="#868686" fill-opacity="0.9"/>
<circle cx="3" cy="3" r="3" transform="matrix(0 -1 -1 0 188 188)" fill="#868686" fill-opacity="0.9"/>
<circle cx="3" cy="3" r="3" transform="matrix(0 -1 -1 0 202 188)" fill="#868686" fill-opacity="0.9"/>
<circle cx="3" cy="3" r="3" transform="matrix(0 -1 -1 0 6 174)" fill="#868686" fill-opacity="0.9"/>
<circle cx="3" cy="3" r="3" transform="matrix(0 -1 -1 0 20 174)" fill="#868686" fill-opacity="0.9"/>
<circle cx="3" cy="3" r="3" transform="matrix(0 -1 -1 0 34 174)" fill="#868686" fill-opacity="0.9"/>
<circle cx="3" cy="3" r="3" transform="matrix(0 -1 -1 0 48 174)" fill="#868686" fill-opacity="0.9"/>
<circle cx="3" cy="3" r="3" transform="matrix(0 -1 -1 0 62 174)" fill="#868686" fill-opacity="0.9"/>
<circle cx="3" cy="3" r="3" transform="matrix(0 -1 -1 0 76 174)" fill="#868686" fill-opacity="0.9"/>
<circle cx="3" cy="3" r="3" transform="matrix(0 -1 -1 0 90 174)" fill="#868686" fill-opacity="0.9"/>
<circle cx="3" cy="3" r="3" transform="matrix(0 -1 -1 0 104 174)" fill="#868686" fill-opacity="0.9"/>
<circle cx="3" cy="3" r="3" transform="matrix(0 -1 -1 0 118 174)" fill="#868686" fill-opacity="0.9"/>
<circle cx="3" cy="3" r="3" transform="matrix(0 -1 -1 0 132 174)" fill="#868686" fill-opacity="0.9"/>
<circle cx="3" cy="3" r="3" transform="matrix(0 -1 -1 0 146 174)" fill="#868686" fill-opacity="0.9"/>
<circle cx="3" cy="3" r="3" transform="matrix(0 -1 -1 0 160 174)" fill="#868686" fill-opacity="0.9"/>
<circle cx="3" cy="3" r="3" transform="matrix(0 -1 -1 0 174 174)" fill="#868686" fill-opacity="0.9"/>
<circle cx="3" cy="3" r="3" transform="matrix(0 -1 -1 0 188 174)" fill="#868686" fill-opacity="0.9"/>
<circle cx="3" cy="3" r="3" transform="matrix(0 -1 -1 0 202 174)" fill="#868686" fill-opacity="0.9"/>
<circle cx="3" cy="3" r="3" transform="matrix(0 -1 -1 0 6 160)" fill="#868686" fill-opacity="0.9"/>
<circle cx="3" cy="3" r="3" transform="matrix(0 -1 -1 0 20 160)" fill="#868686" fill-opacity="0.9"/>
<circle cx="3" cy="3" r="3" transform="matrix(0 -1 -1 0 34 160)" fill="#868686" fill-opacity="0.9"/>
<circle cx="3" cy="3" r="3" transform="matrix(0 -1 -1 0 48 160)" fill="#868686" fill-opacity="0.9"/>
<circle cx="3" cy="3" r="3" transform="matrix(0 -1 -1 0 62 160)" fill="#868686" fill-opacity="0.9"/>
<circle cx="3" cy="3" r="3" transform="matrix(0 -1 -1 0 76 160)" fill="#868686" fill-opacity="0.9"/>
<circle cx="3" cy="3" r="3" transform="matrix(0 -1 -1 0 90 160)" fill="#868686" fill-opacity="0.9"/>
<circle cx="3" cy="3" r="3" transform="matrix(0 -1 -1 0 104 160)" fill="#868686" fill-opacity="0.9"/>
<circle cx="3" cy="3" r="3" transform="matrix(0 -1 -1 0 118 160)" fill="#868686" fill-opacity="0.9"/>
<circle cx="3" cy="3" r="3" transform="matrix(0 -1 -1 0 132 160)" fill="#868686" fill-opacity="0.9"/>
<circle cx="3" cy="3" r="3" transform="matrix(0 -1 -1 0 146 160)" fill="#868686" fill-opacity="0.9"/>
<circle cx="3" cy="3" r="3" transform="matrix(0 -1 -1 0 160 160)" fill="#868686" fill-opacity="0.9"/>
<circle cx="3" cy="3" r="3" transform="matrix(0 -1 -1 0 174 160)" fill="#868686" fill-opacity="0.9"/>
<circle cx="3" cy="3" r="3" transform="matrix(0 -1 -1 0 188 160)" fill="#868686" fill-opacity="0.9"/>
<circle cx="3" cy="3" r="3" transform="matrix(0 -1 -1 0 202 160)" fill="#868686" fill-opacity="0.9"/>
<circle cx="3" cy="3" r="3" transform="matrix(0 -1 -1 0 6 146)" fill="#868686" fill-opacity="0.9"/>
<circle cx="3" cy="3" r="3" transform="matrix(0 -1 -1 0 20 146)" fill="#868686" fill-opacity="0.9"/>
<circle cx="3" cy="3" r="3" transform="matrix(0 -1 -1 0 34 146)" fill="#868686" fill-opacity="0.9"/>
<circle cx="3" cy="3" r="3" transform="matrix(0 -1 -1 0 48 146)" fill="#868686" fill-opacity="0.9"/>
<circle cx="3" cy="3" r="3" transform="matrix(0 -1 -1 0 62 146)" fill="#868686" fill-opacity="0.9"/>
<circle cx="3" cy="3" r="3" transform="matrix(0 -1 -1 0 76 146)" fill="#868686" fill-opacity="0.9"/>
<circle cx="3" cy="3" r="3" transform="matrix(0 -1 -1 0 90 146)" fill="#868686" fill-opacity="0.9"/>
<circle cx="3" cy="3" r="3" transform="matrix(0 -1 -1 0 104 146)" fill="#868686" fill-opacity="0.9"/>
<circle cx="3" cy="3" r="3" transform="matrix(0 -1 -1 0 118 146)" fill="#868686" fill-opacity="0.9"/>
<circle cx="3" cy="3" r="3" transform="matrix(0 -1 -1 0 132 146)" fill="#868686" fill-opacity="0.9"/>
<circle cx="3" cy="3" r="3" transform="matrix(0 -1 -1 0 146 146)" fill="#868686" fill-opacity="0.9"/>
<circle cx="3" cy="3" r="3" transform="matrix(0 -1 -1 0 160 146)" fill="#868686" fill-opacity="0.9"/>
<circle cx="3" cy="3" r="3" transform="matrix(0 -1 -1 0 174 146)" fill="#868686" fill-opacity="0.9"/>
<circle cx="3" cy="3" r="3" transform="matrix(0 -1 -1 0 188 146)" fill="#868686" fill-opacity="0.9"/>
<circle cx="3" cy="3" r="3" transform="matrix(0 -1 -1 0 202 146)" fill="#868686" fill-opacity="0.9"/>
<circle cx="3" cy="3" r="3" transform="matrix(0 -1 -1 0 6 132)" fill="#868686" fill-opacity="0.9"/>
<circle cx="3" cy="3" r="3" transform="matrix(0 -1 -1 0 20 132)" fill="#868686" fill-opacity="0.9"/>
<circle cx="3" cy="3" r="3" transform="matrix(0 -1 -1 0 34 132)" fill="#868686" fill-opacity="0.9"/>
<circle cx="3" cy="3" r="3" transform="matrix(0 -1 -1 0 48 132)" fill="#868686" fill-opacity="0.9"/>
<circle cx="3" cy="3" r="3" transform="matrix(0 -1 -1 0 62 132)" fill="#868686" fill-opacity="0.9"/>
<circle cx="3" cy="3" r="3" transform="matrix(0 -1 -1 0 76 132)" fill="#868686" fill-opacity="0.9"/>
<circle cx="3" cy="3" r="3" transform="matrix(0 -1 -1 0 90 132)" fill="#868686" fill-opacity="0.9"/>
<circle cx="3" cy="3" r="3" transform="matrix(0 -1 -1 0 104 132)" fill="#868686" fill-opacity="0.9"/>
<circle cx="3" cy="3" r="3" transform="matrix(0 -1 -1 0 118 132)" fill="#868686" fill-opacity="0.9"/>
<circle cx="3" cy="3" r="3" transform="matrix(0 -1 -1 0 132 132)" fill="#868686" fill-opacity="0.9"/>
<circle cx="3" cy="3" r="3" transform="matrix(0 -1 -1 0 146 132)" fill="#868686" fill-opacity="0.9"/>
<circle cx="3" cy="3" r="3" transform="matrix(0 -1 -1 0 160 132)" fill="#868686" fill-opacity="0.9"/>
<circle cx="3" cy="3" r="3" transform="matrix(0 -1 -1 0 174 132)" fill="#868686" fill-opacity="0.9"/>
<circle cx="3" cy="3" r="3" transform="matrix(0 -1 -1 0 188 132)" fill="#868686" fill-opacity="0.9"/>
<circle cx="3" cy="3" r="3" transform="matrix(0 -1 -1 0 202 132)" fill="#868686" fill-opacity="0.9"/>
<circle cx="3" cy="3" r="3" transform="matrix(0 -1 -1 0 6 118)" fill="#868686" fill-opacity="0.9"/>
<circle cx="3" cy="3" r="3" transform="matrix(0 -1 -1 0 20 118)" fill="#868686" fill-opacity="0.9"/>
<circle cx="3" cy="3" r="3" transform="matrix(0 -1 -1 0 34 118)" fill="#868686" fill-opacity="0.9"/>
<circle cx="3" cy="3" r="3" transform="matrix(0 -1 -1 0 48 118)" fill="#868686" fill-opacity="0.9"/>
<circle cx="3" cy="3" r="3" transform="matrix(0 -1 -1 0 62 118)" fill="#868686" fill-opacity="0.9"/>
<circle cx="3" cy="3" r="3" transform="matrix(0 -1 -1 0 76 118)" fill="#868686" fill-opacity="0.9"/>
<circle cx="3" cy="3" r="3" transform="matrix(0 -1 -1 0 90 118)" fill="#868686" fill-opacity="0.9"/>
<circle cx="3" cy="3" r="3" transform="matrix(0 -1 -1 0 104 118)" fill="#868686" fill-opacity="0.9"/>
<circle cx="3" cy="3" r="3" transform="matrix(0 -1 -1 0 118 118)" fill="#868686" fill-opacity="0.9"/>
<circle cx="3" cy="3" r="3" transform="matrix(0 -1 -1 0 132 118)" fill="#868686" fill-opacity="0.9"/>
<circle cx="3" cy="3" r="3" transform="matrix(0 -1 -1 0 146 118)" fill="#868686" fill-opacity="0.9"/>
<circle cx="3" cy="3" r="3" transform="matrix(0 -1 -1 0 160 118)" fill="#868686" fill-opacity="0.9"/>
<circle cx="3" cy="3" r="3" transform="matrix(0 -1 -1 0 174 118)" fill="#868686" fill-opacity="0.9"/>
<circle cx="3" cy="3" r="3" transform="matrix(0 -1 -1 0 188 118)" fill="#868686" fill-opacity="0.9"/>
<circle cx="3" cy="3" r="3" transform="matrix(0 -1 -1 0 202 118)" fill="#868686" fill-opacity="0.9"/>
<circle cx="3" cy="3" r="3" transform="matrix(0 -1 -1 0 6 104)" fill="#868686" fill-opacity="0.9"/>
<circle cx="3" cy="3" r="3" transform="matrix(0 -1 -1 0 20 104)" fill="#868686" fill-opacity="0.9"/>
<circle cx="3" cy="3" r="3" transform="matrix(0 -1 -1 0 34 104)" fill="#868686" fill-opacity="0.9"/>
<circle cx="3" cy="3" r="3" transform="matrix(0 -1 -1 0 48 104)" fill="#868686" fill-opacity="0.9"/>
<circle cx="3" cy="3" r="3" transform="matrix(0 -1 -1 0 62 104)" fill="#868686" fill-opacity="0.9"/>
<circle cx="3" cy="3" r="3" transform="matrix(0 -1 -1 0 76 104)" fill="#868686" fill-opacity="0.9"/>
<circle cx="3" cy="3" r="3" transform="matrix(0 -1 -1 0 90 104)" fill="#868686" fill-opacity="0.9"/>
<circle cx="3" cy="3" r="3" transform="matrix(0 -1 -1 0 104 104)" fill="#868686" fill-opacity="0.9"/>
<circle cx="3" cy="3" r="3" transform="matrix(0 -1 -1 0 118 104)" fill="#868686" fill-opacity="0.9"/>
<circle cx="3" cy="3" r="3" transform="matrix(0 -1 -1 0 132 104)" fill="#868686" fill-opacity="0.9"/>
<circle cx="3" cy="3" r="3" transform="matrix(0 -1 -1 0 146 104)" fill="#868686" fill-opacity="0.9"/>
<circle cx="3" cy="3" r="3" transform="matrix(0 -1 -1 0 160 104)" fill="#868686" fill-opacity="0.9"/>
<circle cx="3" cy="3" r="3" transform="matrix(0 -1 -1 0 174 104)" fill="#868686" fill-opacity="0.9"/>
<circle cx="3" cy="3" r="3" transform="matrix(0 -1 -1 0 188 104)" fill="#868686" fill-opacity="0.9"/>
<circle cx="3" cy="3" r="3" transform="matrix(0 -1 -1 0 202 104)" fill="#868686" fill-opacity="0.9"/>
<circle cx="3" cy="3" r="3" transform="matrix(0 -1 -1 0 6 90)" fill="#868686" fill-opacity="0.9"/>
<circle cx="3" cy="3" r="3" transform="matrix(0 -1 -1 0 20 90)" fill="#868686" fill-opacity="0.9"/>
<circle cx="3" cy="3" r="3" transform="matrix(0 -1 -1 0 34 90)" fill="#868686" fill-opacity="0.9"/>
<circle cx="3" cy="3" r="3" transform="matrix(0 -1 -1 0 48 90)" fill="#868686" fill-opacity="0.9"/>
<circle cx="3" cy="3" r="3" transform="matrix(0 -1 -1 0 62 90)" fill="#868686" fill-opacity="0.9"/>
<circle cx="3" cy="3" r="3" transform="matrix(0 -1 -1 0 76 90)" fill="#868686" fill-opacity="0.9"/>
<circle cx="3" cy="3" r="3" transform="matrix(0 -1 -1 0 90 90)" fill="#868686" fill-opacity="0.9"/>
<circle cx="3" cy="3" r="3" transform="matrix(0 -1 -1 0 104 90)" fill="#868686" fill-opacity="0.9"/>
<circle cx="3" cy="3" r="3" transform="matrix(0 -1 -1 0 118 90)" fill="#868686" fill-opacity="0.9"/>
<circle cx="3" cy="3" r="3" transform="matrix(0 -1 -1 0 132 90)" fill="#868686" fill-opacity="0.9"/>
<circle cx="3" cy="3" r="3" transform="matrix(0 -1 -1 0 146 90)" fill="#868686" fill-opacity="0.9"/>
<circle cx="3" cy="3" r="3" transform="matrix(0 -1 -1 0 160 90)" fill="#868686" fill-opacity="0.9"/>
<circle cx="3" cy="3" r="3" transform="matrix(0 -1 -1 0 174 90)" fill="#868686" fill-opacity="0.9"/>
<circle cx="3" cy="3" r="3" transform="matrix(0 -1 -1 0 188 90)" fill="#868686" fill-opacity="0.9"/>
<circle cx="3" cy="3" r="3" transform="matrix(0 -1 -1 0 202 90)" fill="#868686" fill-opacity="0.9"/>
<circle cx="3" cy="3" r="3" transform="matrix(0 -1 -1 0 6 76)" fill="#868686" fill-opacity="0.9"/>
<circle cx="3" cy="3" r="3" transform="matrix(0 -1 -1 0 20 76)" fill="#868686" fill-opacity="0.9"/>
<circle cx="3" cy="3" r="3" transform="matrix(0 -1 -1 0 34 76)" fill="#868686" fill-opacity="0.9"/>
<circle cx="3" cy="3" r="3" transform="matrix(0 -1 -1 0 48 76)" fill="#868686" fill-opacity="0.9"/>
<circle cx="3" cy="3" r="3" transform="matrix(0 -1 -1 0 62 76)" fill="#868686" fill-opacity="0.9"/>
<circle cx="3" cy="3" r="3" transform="matrix(0 -1 -1 0 76 76)" fill="#868686" fill-opacity="0.9"/>
<circle cx="3" cy="3" r="3" transform="matrix(0 -1 -1 0 90 76)" fill="#868686" fill-opacity="0.9"/>
<circle cx="3" cy="3" r="3" transform="matrix(0 -1 -1 0 104 76)" fill="#868686" fill-opacity="0.9"/>
<circle cx="3" cy="3" r="3" transform="matrix(0 -1 -1 0 118 76)" fill="#868686" fill-opacity="0.9"/>
<circle cx="3" cy="3" r="3" transform="matrix(0 -1 -1 0 132 76)" fill="#868686" fill-opacity="0.9"/>
<circle cx="3" cy="3" r="3" transform="matrix(0 -1 -1 0 146 76)" fill="#868686" fill-opacity="0.9"/>
<circle cx="3" cy="3" r="3" transform="matrix(0 -1 -1 0 160 76)" fill="#868686" fill-opacity="0.9"/>
<circle cx="3" cy="3" r="3" transform="matrix(0 -1 -1 0 174 76)" fill="#868686" fill-opacity="0.9"/>
<circle cx="3" cy="3" r="3" transform="matrix(0 -1 -1 0 188 76)" fill="#868686" fill-opacity="0.9"/>
<circle cx="3" cy="3" r="3" transform="matrix(0 -1 -1 0 202 76)" fill="#868686" fill-opacity="0.9"/>
<circle cx="3" cy="3" r="3" transform="matrix(0 -1 -1 0 6 62)" fill="#868686" fill-opacity="0.9"/>
<circle cx="3" cy="3" r="3" transform="matrix(0 -1 -1 0 20 62)" fill="#868686" fill-opacity="0.9"/>
<circle cx="3" cy="3" r="3" transform="matrix(0 -1 -1 0 34 62)" fill="#868686" fill-opacity="0.9"/>
<circle cx="3" cy="3" r="3" transform="matrix(0 -1 -1 0 48 62)" fill="#868686" fill-opacity="0.9"/>
<circle cx="3" cy="3" r="3" transform="matrix(0 -1 -1 0 62 62)" fill="#868686" fill-opacity="0.9"/>
<circle cx="3" cy="3" r="3" transform="matrix(0 -1 -1 0 76 62)" fill="#868686" fill-opacity="0.9"/>
<circle cx="3" cy="3" r="3" transform="matrix(0 -1 -1 0 90 62)" fill="#868686" fill-opacity="0.9"/>
<circle cx="3" cy="3" r="3" transform="matrix(0 -1 -1 0 104 62)" fill="#868686" fill-opacity="0.9"/>
<circle cx="3" cy="3" r="3" transform="matrix(0 -1 -1 0 118 62)" fill="#868686" fill-opacity="0.9"/>
<circle cx="3" cy="3" r="3" transform="matrix(0 -1 -1 0 132 62)" fill="#868686" fill-opacity="0.9"/>
<circle cx="3" cy="3" r="3" transform="matrix(0 -1 -1 0 146 62)" fill="#868686" fill-opacity="0.9"/>
<circle cx="3" cy="3" r="3" transform="matrix(0 -1 -1 0 160 62)" fill="#868686" fill-opacity="0.9"/>
<circle cx="3" cy="3" r="3" transform="matrix(0 -1 -1 0 174 62)" fill="#868686" fill-opacity="0.9"/>
<circle cx="3" cy="3" r="3" transform="matrix(0 -1 -1 0 188 62)" fill="#868686" fill-opacity="0.9"/>
<circle cx="3" cy="3" r="3" transform="matrix(0 -1 -1 0 202 62)" fill="#868686" fill-opacity="0.9"/>
<circle cx="3" cy="3" r="3" transform="matrix(0 -1 -1 0 6 48)" fill="#868686" fill-opacity="0.9"/>
<circle cx="3" cy="3" r="3" transform="matrix(0 -1 -1 0 20 48)" fill="#868686" fill-opacity="0.9"/>
<circle cx="3" cy="3" r="3" transform="matrix(0 -1 -1 0 34 48)" fill="#868686" fill-opacity="0.9"/>
<circle cx="3" cy="3" r="3" transform="matrix(0 -1 -1 0 48 48)" fill="#868686" fill-opacity="0.9"/>
<circle cx="3" cy="3" r="3" transform="matrix(0 -1 -1 0 62 48)" fill="#868686" fill-opacity="0.9"/>
<circle cx="3" cy="3" r="3" transform="matrix(0 -1 -1 0 76 48)" fill="#868686" fill-opacity="0.9"/>
<circle cx="3" cy="3" r="3" transform="matrix(0 -1 -1 0 90 48)" fill="#868686" fill-opacity="0.9"/>
<circle cx="3" cy="3" r="3" transform="matrix(0 -1 -1 0 104 48)" fill="#868686" fill-opacity="0.9"/>
<circle cx="3" cy="3" r="3" transform="matrix(0 -1 -1 0 118 48)" fill="#868686" fill-opacity="0.9"/>
<circle cx="3" cy="3" r="3" transform="matrix(0 -1 -1 0 132 48)" fill="#868686" fill-opacity="0.9"/>
<circle cx="3" cy="3" r="3" transform="matrix(0 -1 -1 0 146 48)" fill="#868686" fill-opacity="0.9"/>
<circle cx="3" cy="3" r="3" transform="matrix(0 -1 -1 0 160 48)" fill="#868686" fill-opacity="0.9"/>
<circle cx="3" cy="3" r="3" transform="matrix(0 -1 -1 0 174 48)" fill="#868686" fill-opacity="0.9"/>
<circle cx="3" cy="3" r="3" transform="matrix(0 -1 -1 0 188 48)" fill="#868686" fill-opacity="0.9"/>
<circle cx="3" cy="3" r="3" transform="matrix(0 -1 -1 0 202 48)" fill="#868686" fill-opacity="0.9"/>
<circle cx="3" cy="3" r="3" transform="matrix(0 -1 -1 0 6 34)" fill="#868686" fill-opacity="0.9"/>
<circle cx="3" cy="3" r="3" transform="matrix(0 -1 -1 0 20 34)" fill="#868686" fill-opacity="0.9"/>
<circle cx="3" cy="3" r="3" transform="matrix(0 -1 -1 0 34 34)" fill="#868686" fill-opacity="0.9"/>
<circle cx="3" cy="3" r="3" transform="matrix(0 -1 -1 0 48 34)" fill="#868686" fill-opacity="0.9"/>
<circle cx="3" cy="3" r="3" transform="matrix(0 -1 -1 0 62 34)" fill="#868686" fill-opacity="0.9"/>
<circle cx="3" cy="3" r="3" transform="matrix(0 -1 -1 0 76 34)" fill="#868686" fill-opacity="0.9"/>
<circle cx="3" cy="3" r="3" transform="matrix(0 -1 -1 0 90 34)" fill="#868686" fill-opacity="0.9"/>
<circle cx="3" cy="3" r="3" transform="matrix(0 -1 -1 0 104 34)" fill="#868686" fill-opacity="0.9"/>
<circle cx="3" cy="3" r="3" transform="matrix(0 -1 -1 0 118 34)" fill="#868686" fill-opacity="0.9"/>
<circle cx="3" cy="3" r="3" transform="matrix(0 -1 -1 0 132 34)" fill="#868686" fill-opacity="0.9"/>
<circle cx="3" cy="3" r="3" transform="matrix(0 -1 -1 0 146 34)" fill="#868686" fill-opacity="0.9"/>
<circle cx="3" cy="3" r="3" transform="matrix(0 -1 -1 0 160 34)" fill="#868686" fill-opacity="0.9"/>
<circle cx="3" cy="3" r="3" transform="matrix(0 -1 -1 0 174 34)" fill="#868686" fill-opacity="0.9"/>
<circle cx="3" cy="3" r="3" transform="matrix(0 -1 -1 0 188 34)" fill="#868686" fill-opacity="0.9"/>
<circle cx="3" cy="3" r="3" transform="matrix(0 -1 -1 0 202 34)" fill="#868686" fill-opacity="0.9"/>
<circle cx="3" cy="3" r="3" transform="matrix(0 -1 -1 0 6 20)" fill="#868686" fill-opacity="0.9"/>
<circle cx="3" cy="3" r="3" transform="matrix(0 -1 -1 0 20 20)" fill="#868686" fill-opacity="0.9"/>
<circle cx="3" cy="3" r="3" transform="matrix(0 -1 -1 0 34 20)" fill="#868686" fill-opacity="0.9"/>
<circle cx="3" cy="3" r="3" transform="matrix(0 -1 -1 0 48 20)" fill="#868686" fill-opacity="0.9"/>
<circle cx="3" cy="3" r="3" transform="matrix(0 -1 -1 0 62 20)" fill="#868686" fill-opacity="0.9"/>
<circle cx="3" cy="3" r="3" transform="matrix(0 -1 -1 0 76 20)" fill="#868686" fill-opacity="0.9"/>
<circle cx="3" cy="3" r="3" transform="matrix(0 -1 -1 0 90 20)" fill="#868686" fill-opacity="0.9"/>
<circle cx="3" cy="3" r="3" transform="matrix(0 -1 -1 0 104 20)" fill="#868686" fill-opacity="0.9"/>
<circle cx="3" cy="3" r="3" transform="matrix(0 -1 -1 0 118 20)" fill="#868686" fill-opacity="0.9"/>
<circle cx="3" cy="3" r="3" transform="matrix(0 -1 -1 0 132 20)" fill="#868686" fill-opacity="0.9"/>
<circle cx="3" cy="3" r="3" transform="matrix(0 -1 -1 0 146 20)" fill="#868686" fill-opacity="0.9"/>
<circle cx="3" cy="3" r="3" transform="matrix(0 -1 -1 0 160 20)" fill="#868686" fill-opacity="0.9"/>
<circle cx="3" cy="3" r="3" transform="matrix(0 -1 -1 0 174 20)" fill="#868686" fill-opacity="0.9"/>
<circle cx="3" cy="3" r="3" transform="matrix(0 -1 -1 0 188 20)" fill="#868686" fill-opacity="0.9"/>
<circle cx="3" cy="3" r="3" transform="matrix(0 -1 -1 0 202 20)" fill="#868686" fill-opacity="0.9"/>
<circle cx="3" cy="3" r="3" transform="matrix(0 -1 -1 0 6 6)" fill="#868686" fill-opacity="0.9"/>
<circle cx="3" cy="3" r="3" transform="matrix(0 -1 -1 0 20 6)" fill="#868686" fill-opacity="0.9"/>
<circle cx="3" cy="3" r="3" transform="matrix(0 -1 -1 0 34 6)" fill="#868686" fill-opacity="0.9"/>
<circle cx="3" cy="3" r="3" transform="matrix(0 -1 -1 0 48 6)" fill="#868686" fill-opacity="0.9"/>
<circle cx="3" cy="3" r="3" transform="matrix(0 -1 -1 0 62 6)" fill="#868686" fill-opacity="0.9"/>
<circle cx="3" cy="3" r="3" transform="matrix(0 -1 -1 0 76 6)" fill="#868686" fill-opacity="0.9"/>
<circle cx="3" cy="3" r="3" transform="matrix(0 -1 -1 0 90 6)" fill="#868686" fill-opacity="0.9"/>
<circle cx="3" cy="3" r="3" transform="matrix(0 -1 -1 0 104 6)" fill="#868686" fill-opacity="0.9"/>
<circle cx="3" cy="3" r="3" transform="matrix(0 -1 -1 0 118 6)" fill="#868686" fill-opacity="0.9"/>
<circle cx="3" cy="3" r="3" transform="matrix(0 -1 -1 0 132 6)" fill="#868686" fill-opacity="0.9"/>
<circle cx="3" cy="3" r="3" transform="matrix(0 -1 -1 0 146 6)" fill="#868686" fill-opacity="0.9"/>
<circle cx="3" cy="3" r="3" transform="matrix(0 -1 -1 0 160 6)" fill="#868686" fill-opacity="0.9"/>
<circle cx="3" cy="3" r="3" transform="matrix(0 -1 -1 0 174 6)" fill="#868686" fill-opacity="0.9"/>
<circle cx="3" cy="3" r="3" transform="matrix(0 -1 -1 0 188 6)" fill="#868686" fill-opacity="0.9"/>
<circle cx="3" cy="3" r="3" transform="matrix(0 -1 -1 0 202 6)" fill="#868686" fill-opacity="0.9"/>
</g>
</svg>
