<svg width="370" height="202" viewBox="0 0 370 202" fill="none" xmlns="http://www.w3.org/2000/svg">
<g opacity="0.6">
<circle cx="3" cy="3" r="3" transform="matrix(1 0 0 -1 0 6)" fill="#868686" fill-opacity="0.9"/>
<circle cx="3" cy="3" r="3" transform="matrix(1 0 0 -1 0 20)" fill="#868686" fill-opacity="0.9"/>
<circle cx="3" cy="3" r="3" transform="matrix(1 0 0 -1 0 34)" fill="#868686" fill-opacity="0.9"/>
<circle cx="3" cy="3" r="3" transform="matrix(1 0 0 -1 0 48)" fill="#868686" fill-opacity="0.9"/>
<circle cx="3" cy="3" r="3" transform="matrix(1 0 0 -1 0 62)" fill="#868686" fill-opacity="0.9"/>
<circle cx="3" cy="3" r="3" transform="matrix(1 0 0 -1 0 76)" fill="#868686" fill-opacity="0.9"/>
<circle cx="3" cy="3" r="3" transform="matrix(1 0 0 -1 0 90)" fill="#868686" fill-opacity="0.9"/>
<circle cx="3" cy="3" r="3" transform="matrix(1 0 0 -1 0 104)" fill="#868686" fill-opacity="0.9"/>
<circle cx="3" cy="3" r="3" transform="matrix(1 0 0 -1 0 118)" fill="#868686" fill-opacity="0.9"/>
<circle cx="3" cy="3" r="3" transform="matrix(1 0 0 -1 0 132)" fill="#868686" fill-opacity="0.9"/>
<circle cx="3" cy="3" r="3" transform="matrix(1 0 0 -1 0 146)" fill="#868686" fill-opacity="0.9"/>
<circle cx="3" cy="3" r="3" transform="matrix(1 0 0 -1 0 160)" fill="#868686" fill-opacity="0.9"/>
<circle cx="3" cy="3" r="3" transform="matrix(1 0 0 -1 0 174)" fill="#868686" fill-opacity="0.9"/>
<circle cx="3" cy="3" r="3" transform="matrix(1 0 0 -1 0 188)" fill="#868686" fill-opacity="0.9"/>
<circle cx="3" cy="3" r="3" transform="matrix(1 0 0 -1 0 202)" fill="#868686" fill-opacity="0.9"/>
<circle cx="3" cy="3" r="3" transform="matrix(1 0 0 -1 14 6)" fill="#868686" fill-opacity="0.9"/>
<circle cx="3" cy="3" r="3" transform="matrix(1 0 0 -1 14 20)" fill="#868686" fill-opacity="0.9"/>
<circle cx="3" cy="3" r="3" transform="matrix(1 0 0 -1 14 34)" fill="#868686" fill-opacity="0.9"/>
<circle cx="3" cy="3" r="3" transform="matrix(1 0 0 -1 14 48)" fill="#868686" fill-opacity="0.9"/>
<circle cx="3" cy="3" r="3" transform="matrix(1 0 0 -1 14 62)" fill="#868686" fill-opacity="0.9"/>
<circle cx="3" cy="3" r="3" transform="matrix(1 0 0 -1 14 76)" fill="#868686" fill-opacity="0.9"/>
<circle cx="3" cy="3" r="3" transform="matrix(1 0 0 -1 14 90)" fill="#868686" fill-opacity="0.9"/>
<circle cx="3" cy="3" r="3" transform="matrix(1 0 0 -1 14 104)" fill="#868686" fill-opacity="0.9"/>
<circle cx="3" cy="3" r="3" transform="matrix(1 0 0 -1 14 118)" fill="#868686" fill-opacity="0.9"/>
<circle cx="3" cy="3" r="3" transform="matrix(1 0 0 -1 14 132)" fill="#868686" fill-opacity="0.9"/>
<circle cx="3" cy="3" r="3" transform="matrix(1 0 0 -1 14 146)" fill="#868686" fill-opacity="0.9"/>
<circle cx="3" cy="3" r="3" transform="matrix(1 0 0 -1 14 160)" fill="#868686" fill-opacity="0.9"/>
<circle cx="3" cy="3" r="3" transform="matrix(1 0 0 -1 14 174)" fill="#868686" fill-opacity="0.9"/>
<circle cx="3" cy="3" r="3" transform="matrix(1 0 0 -1 14 188)" fill="#868686" fill-opacity="0.9"/>
<circle cx="3" cy="3" r="3" transform="matrix(1 0 0 -1 14 202)" fill="#868686" fill-opacity="0.9"/>
<circle cx="3" cy="3" r="3" transform="matrix(1 0 0 -1 28 6)" fill="#868686" fill-opacity="0.9"/>
<circle cx="3" cy="3" r="3" transform="matrix(1 0 0 -1 28 20)" fill="#868686" fill-opacity="0.9"/>
<circle cx="3" cy="3" r="3" transform="matrix(1 0 0 -1 28 34)" fill="#868686" fill-opacity="0.9"/>
<circle cx="3" cy="3" r="3" transform="matrix(1 0 0 -1 28 48)" fill="#868686" fill-opacity="0.9"/>
<circle cx="3" cy="3" r="3" transform="matrix(1 0 0 -1 28 62)" fill="#868686" fill-opacity="0.9"/>
<circle cx="3" cy="3" r="3" transform="matrix(1 0 0 -1 28 76)" fill="#868686" fill-opacity="0.9"/>
<circle cx="3" cy="3" r="3" transform="matrix(1 0 0 -1 28 90)" fill="#868686" fill-opacity="0.9"/>
<circle cx="3" cy="3" r="3" transform="matrix(1 0 0 -1 28 104)" fill="#868686" fill-opacity="0.9"/>
<circle cx="3" cy="3" r="3" transform="matrix(1 0 0 -1 28 118)" fill="#868686" fill-opacity="0.9"/>
<circle cx="3" cy="3" r="3" transform="matrix(1 0 0 -1 28 132)" fill="#868686" fill-opacity="0.9"/>
<circle cx="3" cy="3" r="3" transform="matrix(1 0 0 -1 28 146)" fill="#868686" fill-opacity="0.9"/>
<circle cx="3" cy="3" r="3" transform="matrix(1 0 0 -1 28 160)" fill="#868686" fill-opacity="0.9"/>
<circle cx="3" cy="3" r="3" transform="matrix(1 0 0 -1 28 174)" fill="#868686" fill-opacity="0.9"/>
<circle cx="3" cy="3" r="3" transform="matrix(1 0 0 -1 28 188)" fill="#868686" fill-opacity="0.9"/>
<circle cx="3" cy="3" r="3" transform="matrix(1 0 0 -1 28 202)" fill="#868686" fill-opacity="0.9"/>
<circle cx="3" cy="3" r="3" transform="matrix(1 0 0 -1 42 6)" fill="#868686" fill-opacity="0.9"/>
<circle cx="3" cy="3" r="3" transform="matrix(1 0 0 -1 42 20)" fill="#868686" fill-opacity="0.9"/>
<circle cx="3" cy="3" r="3" transform="matrix(1 0 0 -1 42 34)" fill="#868686" fill-opacity="0.9"/>
<circle cx="3" cy="3" r="3" transform="matrix(1 0 0 -1 42 48)" fill="#868686" fill-opacity="0.9"/>
<circle cx="3" cy="3" r="3" transform="matrix(1 0 0 -1 42 62)" fill="#868686" fill-opacity="0.9"/>
<circle cx="3" cy="3" r="3" transform="matrix(1 0 0 -1 42 76)" fill="#868686" fill-opacity="0.9"/>
<circle cx="3" cy="3" r="3" transform="matrix(1 0 0 -1 42 90)" fill="#868686" fill-opacity="0.9"/>
<circle cx="3" cy="3" r="3" transform="matrix(1 0 0 -1 42 104)" fill="#868686" fill-opacity="0.9"/>
<circle cx="3" cy="3" r="3" transform="matrix(1 0 0 -1 42 118)" fill="#868686" fill-opacity="0.9"/>
<circle cx="3" cy="3" r="3" transform="matrix(1 0 0 -1 42 132)" fill="#868686" fill-opacity="0.9"/>
<circle cx="3" cy="3" r="3" transform="matrix(1 0 0 -1 42 146)" fill="#868686" fill-opacity="0.9"/>
<circle cx="3" cy="3" r="3" transform="matrix(1 0 0 -1 42 160)" fill="#868686" fill-opacity="0.9"/>
<circle cx="3" cy="3" r="3" transform="matrix(1 0 0 -1 42 174)" fill="#868686" fill-opacity="0.9"/>
<circle cx="3" cy="3" r="3" transform="matrix(1 0 0 -1 42 188)" fill="#868686" fill-opacity="0.9"/>
<circle cx="3" cy="3" r="3" transform="matrix(1 0 0 -1 42 202)" fill="#868686" fill-opacity="0.9"/>
<circle cx="3" cy="3" r="3" transform="matrix(1 0 0 -1 56 6)" fill="#868686" fill-opacity="0.9"/>
<circle cx="3" cy="3" r="3" transform="matrix(1 0 0 -1 56 20)" fill="#868686" fill-opacity="0.9"/>
<circle cx="3" cy="3" r="3" transform="matrix(1 0 0 -1 56 34)" fill="#868686" fill-opacity="0.9"/>
<circle cx="3" cy="3" r="3" transform="matrix(1 0 0 -1 56 48)" fill="#868686" fill-opacity="0.9"/>
<circle cx="3" cy="3" r="3" transform="matrix(1 0 0 -1 56 62)" fill="#868686" fill-opacity="0.9"/>
<circle cx="3" cy="3" r="3" transform="matrix(1 0 0 -1 56 76)" fill="#868686" fill-opacity="0.9"/>
<circle cx="3" cy="3" r="3" transform="matrix(1 0 0 -1 56 90)" fill="#868686" fill-opacity="0.9"/>
<circle cx="3" cy="3" r="3" transform="matrix(1 0 0 -1 56 104)" fill="#868686" fill-opacity="0.9"/>
<circle cx="3" cy="3" r="3" transform="matrix(1 0 0 -1 56 118)" fill="#868686" fill-opacity="0.9"/>
<circle cx="3" cy="3" r="3" transform="matrix(1 0 0 -1 56 132)" fill="#868686" fill-opacity="0.9"/>
<circle cx="3" cy="3" r="3" transform="matrix(1 0 0 -1 56 146)" fill="#868686" fill-opacity="0.9"/>
<circle cx="3" cy="3" r="3" transform="matrix(1 0 0 -1 56 160)" fill="#868686" fill-opacity="0.9"/>
<circle cx="3" cy="3" r="3" transform="matrix(1 0 0 -1 56 174)" fill="#868686" fill-opacity="0.9"/>
<circle cx="3" cy="3" r="3" transform="matrix(1 0 0 -1 56 188)" fill="#868686" fill-opacity="0.9"/>
<circle cx="3" cy="3" r="3" transform="matrix(1 0 0 -1 56 202)" fill="#868686" fill-opacity="0.9"/>
<circle cx="3" cy="3" r="3" transform="matrix(1 0 0 -1 70 6)" fill="#868686" fill-opacity="0.9"/>
<circle cx="3" cy="3" r="3" transform="matrix(1 0 0 -1 70 20)" fill="#868686" fill-opacity="0.9"/>
<circle cx="3" cy="3" r="3" transform="matrix(1 0 0 -1 70 34)" fill="#868686" fill-opacity="0.9"/>
<circle cx="3" cy="3" r="3" transform="matrix(1 0 0 -1 70 48)" fill="#868686" fill-opacity="0.9"/>
<circle cx="3" cy="3" r="3" transform="matrix(1 0 0 -1 70 62)" fill="#868686" fill-opacity="0.9"/>
<circle cx="3" cy="3" r="3" transform="matrix(1 0 0 -1 70 76)" fill="#868686" fill-opacity="0.9"/>
<circle cx="3" cy="3" r="3" transform="matrix(1 0 0 -1 70 90)" fill="#868686" fill-opacity="0.9"/>
<circle cx="3" cy="3" r="3" transform="matrix(1 0 0 -1 70 104)" fill="#868686" fill-opacity="0.9"/>
<circle cx="3" cy="3" r="3" transform="matrix(1 0 0 -1 70 118)" fill="#868686" fill-opacity="0.9"/>
<circle cx="3" cy="3" r="3" transform="matrix(1 0 0 -1 70 132)" fill="#868686" fill-opacity="0.9"/>
<circle cx="3" cy="3" r="3" transform="matrix(1 0 0 -1 70 146)" fill="#868686" fill-opacity="0.9"/>
<circle cx="3" cy="3" r="3" transform="matrix(1 0 0 -1 70 160)" fill="#868686" fill-opacity="0.9"/>
<circle cx="3" cy="3" r="3" transform="matrix(1 0 0 -1 70 174)" fill="#868686" fill-opacity="0.9"/>
<circle cx="3" cy="3" r="3" transform="matrix(1 0 0 -1 70 188)" fill="#868686" fill-opacity="0.9"/>
<circle cx="3" cy="3" r="3" transform="matrix(1 0 0 -1 70 202)" fill="#868686" fill-opacity="0.9"/>
<circle cx="3" cy="3" r="3" transform="matrix(1 0 0 -1 84 6)" fill="#868686" fill-opacity="0.9"/>
<circle cx="3" cy="3" r="3" transform="matrix(1 0 0 -1 84 20)" fill="#868686" fill-opacity="0.9"/>
<circle cx="3" cy="3" r="3" transform="matrix(1 0 0 -1 84 34)" fill="#868686" fill-opacity="0.9"/>
<circle cx="3" cy="3" r="3" transform="matrix(1 0 0 -1 84 48)" fill="#868686" fill-opacity="0.9"/>
<circle cx="3" cy="3" r="3" transform="matrix(1 0 0 -1 84 62)" fill="#868686" fill-opacity="0.9"/>
<circle cx="3" cy="3" r="3" transform="matrix(1 0 0 -1 84 76)" fill="#868686" fill-opacity="0.9"/>
<circle cx="3" cy="3" r="3" transform="matrix(1 0 0 -1 84 90)" fill="#868686" fill-opacity="0.9"/>
<circle cx="3" cy="3" r="3" transform="matrix(1 0 0 -1 84 104)" fill="#868686" fill-opacity="0.9"/>
<circle cx="3" cy="3" r="3" transform="matrix(1 0 0 -1 84 118)" fill="#868686" fill-opacity="0.9"/>
<circle cx="3" cy="3" r="3" transform="matrix(1 0 0 -1 84 132)" fill="#868686" fill-opacity="0.9"/>
<circle cx="3" cy="3" r="3" transform="matrix(1 0 0 -1 84 146)" fill="#868686" fill-opacity="0.9"/>
<circle cx="3" cy="3" r="3" transform="matrix(1 0 0 -1 84 160)" fill="#868686" fill-opacity="0.9"/>
<circle cx="3" cy="3" r="3" transform="matrix(1 0 0 -1 84 174)" fill="#868686" fill-opacity="0.9"/>
<circle cx="3" cy="3" r="3" transform="matrix(1 0 0 -1 84 188)" fill="#868686" fill-opacity="0.9"/>
<circle cx="3" cy="3" r="3" transform="matrix(1 0 0 -1 84 202)" fill="#868686" fill-opacity="0.9"/>
<circle cx="3" cy="3" r="3" transform="matrix(1 0 0 -1 98 6)" fill="#868686" fill-opacity="0.9"/>
<circle cx="3" cy="3" r="3" transform="matrix(1 0 0 -1 98 20)" fill="#868686" fill-opacity="0.9"/>
<circle cx="3" cy="3" r="3" transform="matrix(1 0 0 -1 98 34)" fill="#868686" fill-opacity="0.9"/>
<circle cx="3" cy="3" r="3" transform="matrix(1 0 0 -1 98 48)" fill="#868686" fill-opacity="0.9"/>
<circle cx="3" cy="3" r="3" transform="matrix(1 0 0 -1 98 62)" fill="#868686" fill-opacity="0.9"/>
<circle cx="3" cy="3" r="3" transform="matrix(1 0 0 -1 98 76)" fill="#868686" fill-opacity="0.9"/>
<circle cx="3" cy="3" r="3" transform="matrix(1 0 0 -1 98 90)" fill="#868686" fill-opacity="0.9"/>
<circle cx="3" cy="3" r="3" transform="matrix(1 0 0 -1 98 104)" fill="#868686" fill-opacity="0.9"/>
<circle cx="3" cy="3" r="3" transform="matrix(1 0 0 -1 98 118)" fill="#868686" fill-opacity="0.9"/>
<circle cx="3" cy="3" r="3" transform="matrix(1 0 0 -1 98 132)" fill="#868686" fill-opacity="0.9"/>
<circle cx="3" cy="3" r="3" transform="matrix(1 0 0 -1 98 146)" fill="#868686" fill-opacity="0.9"/>
<circle cx="3" cy="3" r="3" transform="matrix(1 0 0 -1 98 160)" fill="#868686" fill-opacity="0.9"/>
<circle cx="3" cy="3" r="3" transform="matrix(1 0 0 -1 98 174)" fill="#868686" fill-opacity="0.9"/>
<circle cx="3" cy="3" r="3" transform="matrix(1 0 0 -1 98 188)" fill="#868686" fill-opacity="0.9"/>
<circle cx="3" cy="3" r="3" transform="matrix(1 0 0 -1 98 202)" fill="#868686" fill-opacity="0.9"/>
<circle cx="3" cy="3" r="3" transform="matrix(1 0 0 -1 112 6)" fill="#868686" fill-opacity="0.9"/>
<circle cx="3" cy="3" r="3" transform="matrix(1 0 0 -1 112 20)" fill="#868686" fill-opacity="0.9"/>
<circle cx="3" cy="3" r="3" transform="matrix(1 0 0 -1 112 34)" fill="#868686" fill-opacity="0.9"/>
<circle cx="3" cy="3" r="3" transform="matrix(1 0 0 -1 112 48)" fill="#868686" fill-opacity="0.9"/>
<circle cx="3" cy="3" r="3" transform="matrix(1 0 0 -1 112 62)" fill="#868686" fill-opacity="0.9"/>
<circle cx="3" cy="3" r="3" transform="matrix(1 0 0 -1 112 76)" fill="#868686" fill-opacity="0.9"/>
<circle cx="3" cy="3" r="3" transform="matrix(1 0 0 -1 112 90)" fill="#868686" fill-opacity="0.9"/>
<circle cx="3" cy="3" r="3" transform="matrix(1 0 0 -1 112 104)" fill="#868686" fill-opacity="0.9"/>
<circle cx="3" cy="3" r="3" transform="matrix(1 0 0 -1 112 118)" fill="#868686" fill-opacity="0.9"/>
<circle cx="3" cy="3" r="3" transform="matrix(1 0 0 -1 112 132)" fill="#868686" fill-opacity="0.9"/>
<circle cx="3" cy="3" r="3" transform="matrix(1 0 0 -1 112 146)" fill="#868686" fill-opacity="0.9"/>
<circle cx="3" cy="3" r="3" transform="matrix(1 0 0 -1 112 160)" fill="#868686" fill-opacity="0.9"/>
<circle cx="3" cy="3" r="3" transform="matrix(1 0 0 -1 112 174)" fill="#868686" fill-opacity="0.9"/>
<circle cx="3" cy="3" r="3" transform="matrix(1 0 0 -1 112 188)" fill="#868686" fill-opacity="0.9"/>
<circle cx="3" cy="3" r="3" transform="matrix(1 0 0 -1 112 202)" fill="#868686" fill-opacity="0.9"/>
<circle cx="3" cy="3" r="3" transform="matrix(1 0 0 -1 126 6)" fill="#868686" fill-opacity="0.9"/>
<circle cx="3" cy="3" r="3" transform="matrix(1 0 0 -1 126 20)" fill="#868686" fill-opacity="0.9"/>
<circle cx="3" cy="3" r="3" transform="matrix(1 0 0 -1 126 34)" fill="#868686" fill-opacity="0.9"/>
<circle cx="3" cy="3" r="3" transform="matrix(1 0 0 -1 126 48)" fill="#868686" fill-opacity="0.9"/>
<circle cx="3" cy="3" r="3" transform="matrix(1 0 0 -1 126 62)" fill="#868686" fill-opacity="0.9"/>
<circle cx="3" cy="3" r="3" transform="matrix(1 0 0 -1 126 76)" fill="#868686" fill-opacity="0.9"/>
<circle cx="3" cy="3" r="3" transform="matrix(1 0 0 -1 126 90)" fill="#868686" fill-opacity="0.9"/>
<circle cx="3" cy="3" r="3" transform="matrix(1 0 0 -1 126 104)" fill="#868686" fill-opacity="0.9"/>
<circle cx="3" cy="3" r="3" transform="matrix(1 0 0 -1 126 118)" fill="#868686" fill-opacity="0.9"/>
<circle cx="3" cy="3" r="3" transform="matrix(1 0 0 -1 126 132)" fill="#868686" fill-opacity="0.9"/>
<circle cx="3" cy="3" r="3" transform="matrix(1 0 0 -1 126 146)" fill="#868686" fill-opacity="0.9"/>
<circle cx="3" cy="3" r="3" transform="matrix(1 0 0 -1 126 160)" fill="#868686" fill-opacity="0.9"/>
<circle cx="3" cy="3" r="3" transform="matrix(1 0 0 -1 126 174)" fill="#868686" fill-opacity="0.9"/>
<circle cx="3" cy="3" r="3" transform="matrix(1 0 0 -1 126 188)" fill="#868686" fill-opacity="0.9"/>
<circle cx="3" cy="3" r="3" transform="matrix(1 0 0 -1 126 202)" fill="#868686" fill-opacity="0.9"/>
<circle cx="3" cy="3" r="3" transform="matrix(1 0 0 -1 140 6)" fill="#868686" fill-opacity="0.9"/>
<circle cx="3" cy="3" r="3" transform="matrix(1 0 0 -1 140 20)" fill="#868686" fill-opacity="0.9"/>
<circle cx="3" cy="3" r="3" transform="matrix(1 0 0 -1 140 34)" fill="#868686" fill-opacity="0.9"/>
<circle cx="3" cy="3" r="3" transform="matrix(1 0 0 -1 140 48)" fill="#868686" fill-opacity="0.9"/>
<circle cx="3" cy="3" r="3" transform="matrix(1 0 0 -1 140 62)" fill="#868686" fill-opacity="0.9"/>
<circle cx="3" cy="3" r="3" transform="matrix(1 0 0 -1 140 76)" fill="#868686" fill-opacity="0.9"/>
<circle cx="3" cy="3" r="3" transform="matrix(1 0 0 -1 140 90)" fill="#868686" fill-opacity="0.9"/>
<circle cx="3" cy="3" r="3" transform="matrix(1 0 0 -1 140 104)" fill="#868686" fill-opacity="0.9"/>
<circle cx="3" cy="3" r="3" transform="matrix(1 0 0 -1 140 118)" fill="#868686" fill-opacity="0.9"/>
<circle cx="3" cy="3" r="3" transform="matrix(1 0 0 -1 140 132)" fill="#868686" fill-opacity="0.9"/>
<circle cx="3" cy="3" r="3" transform="matrix(1 0 0 -1 140 146)" fill="#868686" fill-opacity="0.9"/>
<circle cx="3" cy="3" r="3" transform="matrix(1 0 0 -1 140 160)" fill="#868686" fill-opacity="0.9"/>
<circle cx="3" cy="3" r="3" transform="matrix(1 0 0 -1 140 174)" fill="#868686" fill-opacity="0.9"/>
<circle cx="3" cy="3" r="3" transform="matrix(1 0 0 -1 140 188)" fill="#868686" fill-opacity="0.9"/>
<circle cx="3" cy="3" r="3" transform="matrix(1 0 0 -1 140 202)" fill="#868686" fill-opacity="0.9"/>
<circle cx="3" cy="3" r="3" transform="matrix(1 0 0 -1 154 6)" fill="#868686" fill-opacity="0.9"/>
<circle cx="3" cy="3" r="3" transform="matrix(1 0 0 -1 154 20)" fill="#868686" fill-opacity="0.9"/>
<circle cx="3" cy="3" r="3" transform="matrix(1 0 0 -1 154 34)" fill="#868686" fill-opacity="0.9"/>
<circle cx="3" cy="3" r="3" transform="matrix(1 0 0 -1 154 48)" fill="#868686" fill-opacity="0.9"/>
<circle cx="3" cy="3" r="3" transform="matrix(1 0 0 -1 154 62)" fill="#868686" fill-opacity="0.9"/>
<circle cx="3" cy="3" r="3" transform="matrix(1 0 0 -1 154 76)" fill="#868686" fill-opacity="0.9"/>
<circle cx="3" cy="3" r="3" transform="matrix(1 0 0 -1 154 90)" fill="#868686" fill-opacity="0.9"/>
<circle cx="3" cy="3" r="3" transform="matrix(1 0 0 -1 154 104)" fill="#868686" fill-opacity="0.9"/>
<circle cx="3" cy="3" r="3" transform="matrix(1 0 0 -1 154 118)" fill="#868686" fill-opacity="0.9"/>
<circle cx="3" cy="3" r="3" transform="matrix(1 0 0 -1 154 132)" fill="#868686" fill-opacity="0.9"/>
<circle cx="3" cy="3" r="3" transform="matrix(1 0 0 -1 154 146)" fill="#868686" fill-opacity="0.9"/>
<circle cx="3" cy="3" r="3" transform="matrix(1 0 0 -1 154 160)" fill="#868686" fill-opacity="0.9"/>
<circle cx="3" cy="3" r="3" transform="matrix(1 0 0 -1 154 174)" fill="#868686" fill-opacity="0.9"/>
<circle cx="3" cy="3" r="3" transform="matrix(1 0 0 -1 154 188)" fill="#868686" fill-opacity="0.9"/>
<circle cx="3" cy="3" r="3" transform="matrix(1 0 0 -1 154 202)" fill="#868686" fill-opacity="0.9"/>
<circle cx="3" cy="3" r="3" transform="matrix(1 0 0 -1 168 6)" fill="#868686" fill-opacity="0.9"/>
<circle cx="3" cy="3" r="3" transform="matrix(1 0 0 -1 168 20)" fill="#868686" fill-opacity="0.9"/>
<circle cx="3" cy="3" r="3" transform="matrix(1 0 0 -1 168 34)" fill="#868686" fill-opacity="0.9"/>
<circle cx="3" cy="3" r="3" transform="matrix(1 0 0 -1 168 48)" fill="#868686" fill-opacity="0.9"/>
<circle cx="3" cy="3" r="3" transform="matrix(1 0 0 -1 168 62)" fill="#868686" fill-opacity="0.9"/>
<circle cx="3" cy="3" r="3" transform="matrix(1 0 0 -1 168 76)" fill="#868686" fill-opacity="0.9"/>
<circle cx="3" cy="3" r="3" transform="matrix(1 0 0 -1 168 90)" fill="#868686" fill-opacity="0.9"/>
<circle cx="3" cy="3" r="3" transform="matrix(1 0 0 -1 168 104)" fill="#868686" fill-opacity="0.9"/>
<circle cx="3" cy="3" r="3" transform="matrix(1 0 0 -1 168 118)" fill="#868686" fill-opacity="0.9"/>
<circle cx="3" cy="3" r="3" transform="matrix(1 0 0 -1 168 132)" fill="#868686" fill-opacity="0.9"/>
<circle cx="3" cy="3" r="3" transform="matrix(1 0 0 -1 168 146)" fill="#868686" fill-opacity="0.9"/>
<circle cx="3" cy="3" r="3" transform="matrix(1 0 0 -1 168 160)" fill="#868686" fill-opacity="0.9"/>
<circle cx="3" cy="3" r="3" transform="matrix(1 0 0 -1 168 174)" fill="#868686" fill-opacity="0.9"/>
<circle cx="3" cy="3" r="3" transform="matrix(1 0 0 -1 168 188)" fill="#868686" fill-opacity="0.9"/>
<circle cx="3" cy="3" r="3" transform="matrix(1 0 0 -1 168 202)" fill="#868686" fill-opacity="0.9"/>
<circle cx="3" cy="3" r="3" transform="matrix(1 0 0 -1 182 6)" fill="#868686" fill-opacity="0.9"/>
<circle cx="3" cy="3" r="3" transform="matrix(1 0 0 -1 182 20)" fill="#868686" fill-opacity="0.9"/>
<circle cx="3" cy="3" r="3" transform="matrix(1 0 0 -1 182 34)" fill="#868686" fill-opacity="0.9"/>
<circle cx="3" cy="3" r="3" transform="matrix(1 0 0 -1 182 48)" fill="#868686" fill-opacity="0.9"/>
<circle cx="3" cy="3" r="3" transform="matrix(1 0 0 -1 182 62)" fill="#868686" fill-opacity="0.9"/>
<circle cx="3" cy="3" r="3" transform="matrix(1 0 0 -1 182 76)" fill="#868686" fill-opacity="0.9"/>
<circle cx="3" cy="3" r="3" transform="matrix(1 0 0 -1 182 90)" fill="#868686" fill-opacity="0.9"/>
<circle cx="3" cy="3" r="3" transform="matrix(1 0 0 -1 182 104)" fill="#868686" fill-opacity="0.9"/>
<circle cx="3" cy="3" r="3" transform="matrix(1 0 0 -1 182 118)" fill="#868686" fill-opacity="0.9"/>
<circle cx="3" cy="3" r="3" transform="matrix(1 0 0 -1 182 132)" fill="#868686" fill-opacity="0.9"/>
<circle cx="3" cy="3" r="3" transform="matrix(1 0 0 -1 182 146)" fill="#868686" fill-opacity="0.9"/>
<circle cx="3" cy="3" r="3" transform="matrix(1 0 0 -1 182 160)" fill="#868686" fill-opacity="0.9"/>
<circle cx="3" cy="3" r="3" transform="matrix(1 0 0 -1 182 174)" fill="#868686" fill-opacity="0.9"/>
<circle cx="3" cy="3" r="3" transform="matrix(1 0 0 -1 182 188)" fill="#868686" fill-opacity="0.9"/>
<circle cx="3" cy="3" r="3" transform="matrix(1 0 0 -1 182 202)" fill="#868686" fill-opacity="0.9"/>
<circle cx="3" cy="3" r="3" transform="matrix(1 0 0 -1 196 6)" fill="#868686" fill-opacity="0.9"/>
<circle cx="3" cy="3" r="3" transform="matrix(1 0 0 -1 196 20)" fill="#868686" fill-opacity="0.9"/>
<circle cx="3" cy="3" r="3" transform="matrix(1 0 0 -1 196 34)" fill="#868686" fill-opacity="0.9"/>
<circle cx="3" cy="3" r="3" transform="matrix(1 0 0 -1 196 48)" fill="#868686" fill-opacity="0.9"/>
<circle cx="3" cy="3" r="3" transform="matrix(1 0 0 -1 196 62)" fill="#868686" fill-opacity="0.9"/>
<circle cx="3" cy="3" r="3" transform="matrix(1 0 0 -1 196 76)" fill="#868686" fill-opacity="0.9"/>
<circle cx="3" cy="3" r="3" transform="matrix(1 0 0 -1 196 90)" fill="#868686" fill-opacity="0.9"/>
<circle cx="3" cy="3" r="3" transform="matrix(1 0 0 -1 196 104)" fill="#868686" fill-opacity="0.9"/>
<circle cx="3" cy="3" r="3" transform="matrix(1 0 0 -1 196 118)" fill="#868686" fill-opacity="0.9"/>
<circle cx="3" cy="3" r="3" transform="matrix(1 0 0 -1 196 132)" fill="#868686" fill-opacity="0.9"/>
<circle cx="3" cy="3" r="3" transform="matrix(1 0 0 -1 196 146)" fill="#868686" fill-opacity="0.9"/>
<circle cx="3" cy="3" r="3" transform="matrix(1 0 0 -1 196 160)" fill="#868686" fill-opacity="0.9"/>
<circle cx="3" cy="3" r="3" transform="matrix(1 0 0 -1 196 174)" fill="#868686" fill-opacity="0.9"/>
<circle cx="3" cy="3" r="3" transform="matrix(1 0 0 -1 196 188)" fill="#868686" fill-opacity="0.9"/>
<circle cx="3" cy="3" r="3" transform="matrix(1 0 0 -1 196 202)" fill="#868686" fill-opacity="0.9"/>
<circle cx="3" cy="3" r="3" transform="matrix(1 0 0 -1 210 6)" fill="#868686" fill-opacity="0.9"/>
<circle cx="3" cy="3" r="3" transform="matrix(1 0 0 -1 210 20)" fill="#868686" fill-opacity="0.9"/>
<circle cx="3" cy="3" r="3" transform="matrix(1 0 0 -1 210 34)" fill="#868686" fill-opacity="0.9"/>
<circle cx="3" cy="3" r="3" transform="matrix(1 0 0 -1 210 48)" fill="#868686" fill-opacity="0.9"/>
<circle cx="3" cy="3" r="3" transform="matrix(1 0 0 -1 210 62)" fill="#868686" fill-opacity="0.9"/>
<circle cx="3" cy="3" r="3" transform="matrix(1 0 0 -1 210 76)" fill="#868686" fill-opacity="0.9"/>
<circle cx="3" cy="3" r="3" transform="matrix(1 0 0 -1 210 90)" fill="#868686" fill-opacity="0.9"/>
<circle cx="3" cy="3" r="3" transform="matrix(1 0 0 -1 210 104)" fill="#868686" fill-opacity="0.9"/>
<circle cx="3" cy="3" r="3" transform="matrix(1 0 0 -1 210 118)" fill="#868686" fill-opacity="0.9"/>
<circle cx="3" cy="3" r="3" transform="matrix(1 0 0 -1 210 132)" fill="#868686" fill-opacity="0.9"/>
<circle cx="3" cy="3" r="3" transform="matrix(1 0 0 -1 210 146)" fill="#868686" fill-opacity="0.9"/>
<circle cx="3" cy="3" r="3" transform="matrix(1 0 0 -1 210 160)" fill="#868686" fill-opacity="0.9"/>
<circle cx="3" cy="3" r="3" transform="matrix(1 0 0 -1 210 174)" fill="#868686" fill-opacity="0.9"/>
<circle cx="3" cy="3" r="3" transform="matrix(1 0 0 -1 210 188)" fill="#868686" fill-opacity="0.9"/>
<circle cx="3" cy="3" r="3" transform="matrix(1 0 0 -1 210 202)" fill="#868686" fill-opacity="0.9"/>
<circle cx="3" cy="3" r="3" transform="matrix(1 0 0 -1 224 6)" fill="#868686" fill-opacity="0.9"/>
<circle cx="3" cy="3" r="3" transform="matrix(1 0 0 -1 224 20)" fill="#868686" fill-opacity="0.9"/>
<circle cx="3" cy="3" r="3" transform="matrix(1 0 0 -1 224 34)" fill="#868686" fill-opacity="0.9"/>
<circle cx="3" cy="3" r="3" transform="matrix(1 0 0 -1 224 48)" fill="#868686" fill-opacity="0.9"/>
<circle cx="3" cy="3" r="3" transform="matrix(1 0 0 -1 224 62)" fill="#868686" fill-opacity="0.9"/>
<circle cx="3" cy="3" r="3" transform="matrix(1 0 0 -1 224 76)" fill="#868686" fill-opacity="0.9"/>
<circle cx="3" cy="3" r="3" transform="matrix(1 0 0 -1 224 90)" fill="#868686" fill-opacity="0.9"/>
<circle cx="3" cy="3" r="3" transform="matrix(1 0 0 -1 224 104)" fill="#868686" fill-opacity="0.9"/>
<circle cx="3" cy="3" r="3" transform="matrix(1 0 0 -1 224 118)" fill="#868686" fill-opacity="0.9"/>
<circle cx="3" cy="3" r="3" transform="matrix(1 0 0 -1 224 132)" fill="#868686" fill-opacity="0.9"/>
<circle cx="3" cy="3" r="3" transform="matrix(1 0 0 -1 224 146)" fill="#868686" fill-opacity="0.9"/>
<circle cx="3" cy="3" r="3" transform="matrix(1 0 0 -1 224 160)" fill="#868686" fill-opacity="0.9"/>
<circle cx="3" cy="3" r="3" transform="matrix(1 0 0 -1 224 174)" fill="#868686" fill-opacity="0.9"/>
<circle cx="3" cy="3" r="3" transform="matrix(1 0 0 -1 224 188)" fill="#868686" fill-opacity="0.9"/>
<circle cx="3" cy="3" r="3" transform="matrix(1 0 0 -1 224 202)" fill="#868686" fill-opacity="0.9"/>
<circle cx="3" cy="3" r="3" transform="matrix(1 0 0 -1 238 6)" fill="#868686" fill-opacity="0.9"/>
<circle cx="3" cy="3" r="3" transform="matrix(1 0 0 -1 238 20)" fill="#868686" fill-opacity="0.9"/>
<circle cx="3" cy="3" r="3" transform="matrix(1 0 0 -1 238 34)" fill="#868686" fill-opacity="0.9"/>
<circle cx="3" cy="3" r="3" transform="matrix(1 0 0 -1 238 48)" fill="#868686" fill-opacity="0.9"/>
<circle cx="3" cy="3" r="3" transform="matrix(1 0 0 -1 238 62)" fill="#868686" fill-opacity="0.9"/>
<circle cx="3" cy="3" r="3" transform="matrix(1 0 0 -1 238 76)" fill="#868686" fill-opacity="0.9"/>
<circle cx="3" cy="3" r="3" transform="matrix(1 0 0 -1 238 90)" fill="#868686" fill-opacity="0.9"/>
<circle cx="3" cy="3" r="3" transform="matrix(1 0 0 -1 238 104)" fill="#868686" fill-opacity="0.9"/>
<circle cx="3" cy="3" r="3" transform="matrix(1 0 0 -1 238 118)" fill="#868686" fill-opacity="0.9"/>
<circle cx="3" cy="3" r="3" transform="matrix(1 0 0 -1 238 132)" fill="#868686" fill-opacity="0.9"/>
<circle cx="3" cy="3" r="3" transform="matrix(1 0 0 -1 238 146)" fill="#868686" fill-opacity="0.9"/>
<circle cx="3" cy="3" r="3" transform="matrix(1 0 0 -1 238 160)" fill="#868686" fill-opacity="0.9"/>
<circle cx="3" cy="3" r="3" transform="matrix(1 0 0 -1 238 174)" fill="#868686" fill-opacity="0.9"/>
<circle cx="3" cy="3" r="3" transform="matrix(1 0 0 -1 238 188)" fill="#868686" fill-opacity="0.9"/>
<circle cx="3" cy="3" r="3" transform="matrix(1 0 0 -1 238 202)" fill="#868686" fill-opacity="0.9"/>
<circle cx="3" cy="3" r="3" transform="matrix(1 0 0 -1 252 6)" fill="#868686" fill-opacity="0.9"/>
<circle cx="3" cy="3" r="3" transform="matrix(1 0 0 -1 252 20)" fill="#868686" fill-opacity="0.9"/>
<circle cx="3" cy="3" r="3" transform="matrix(1 0 0 -1 252 34)" fill="#868686" fill-opacity="0.9"/>
<circle cx="3" cy="3" r="3" transform="matrix(1 0 0 -1 252 48)" fill="#868686" fill-opacity="0.9"/>
<circle cx="3" cy="3" r="3" transform="matrix(1 0 0 -1 252 62)" fill="#868686" fill-opacity="0.9"/>
<circle cx="3" cy="3" r="3" transform="matrix(1 0 0 -1 252 76)" fill="#868686" fill-opacity="0.9"/>
<circle cx="3" cy="3" r="3" transform="matrix(1 0 0 -1 252 90)" fill="#868686" fill-opacity="0.9"/>
<circle cx="3" cy="3" r="3" transform="matrix(1 0 0 -1 252 104)" fill="#868686" fill-opacity="0.9"/>
<circle cx="3" cy="3" r="3" transform="matrix(1 0 0 -1 252 118)" fill="#868686" fill-opacity="0.9"/>
<circle cx="3" cy="3" r="3" transform="matrix(1 0 0 -1 252 132)" fill="#868686" fill-opacity="0.9"/>
<circle cx="3" cy="3" r="3" transform="matrix(1 0 0 -1 252 146)" fill="#868686" fill-opacity="0.9"/>
<circle cx="3" cy="3" r="3" transform="matrix(1 0 0 -1 252 160)" fill="#868686" fill-opacity="0.9"/>
<circle cx="3" cy="3" r="3" transform="matrix(1 0 0 -1 252 174)" fill="#868686" fill-opacity="0.9"/>
<circle cx="3" cy="3" r="3" transform="matrix(1 0 0 -1 252 188)" fill="#868686" fill-opacity="0.9"/>
<circle cx="3" cy="3" r="3" transform="matrix(1 0 0 -1 252 202)" fill="#868686" fill-opacity="0.9"/>
<circle cx="3" cy="3" r="3" transform="matrix(1 0 0 -1 266 6)" fill="#868686" fill-opacity="0.9"/>
<circle cx="3" cy="3" r="3" transform="matrix(1 0 0 -1 266 20)" fill="#868686" fill-opacity="0.9"/>
<circle cx="3" cy="3" r="3" transform="matrix(1 0 0 -1 266 34)" fill="#868686" fill-opacity="0.9"/>
<circle cx="3" cy="3" r="3" transform="matrix(1 0 0 -1 266 48)" fill="#868686" fill-opacity="0.9"/>
<circle cx="3" cy="3" r="3" transform="matrix(1 0 0 -1 266 62)" fill="#868686" fill-opacity="0.9"/>
<circle cx="3" cy="3" r="3" transform="matrix(1 0 0 -1 266 76)" fill="#868686" fill-opacity="0.9"/>
<circle cx="3" cy="3" r="3" transform="matrix(1 0 0 -1 266 90)" fill="#868686" fill-opacity="0.9"/>
<circle cx="3" cy="3" r="3" transform="matrix(1 0 0 -1 266 104)" fill="#868686" fill-opacity="0.9"/>
<circle cx="3" cy="3" r="3" transform="matrix(1 0 0 -1 266 118)" fill="#868686" fill-opacity="0.9"/>
<circle cx="3" cy="3" r="3" transform="matrix(1 0 0 -1 266 132)" fill="#868686" fill-opacity="0.9"/>
<circle cx="3" cy="3" r="3" transform="matrix(1 0 0 -1 266 146)" fill="#868686" fill-opacity="0.9"/>
<circle cx="3" cy="3" r="3" transform="matrix(1 0 0 -1 266 160)" fill="#868686" fill-opacity="0.9"/>
<circle cx="3" cy="3" r="3" transform="matrix(1 0 0 -1 266 174)" fill="#868686" fill-opacity="0.9"/>
<circle cx="3" cy="3" r="3" transform="matrix(1 0 0 -1 266 188)" fill="#868686" fill-opacity="0.9"/>
<circle cx="3" cy="3" r="3" transform="matrix(1 0 0 -1 266 202)" fill="#868686" fill-opacity="0.9"/>
<circle cx="3" cy="3" r="3" transform="matrix(1 0 0 -1 280 6)" fill="#868686" fill-opacity="0.9"/>
<circle cx="3" cy="3" r="3" transform="matrix(1 0 0 -1 280 20)" fill="#868686" fill-opacity="0.9"/>
<circle cx="3" cy="3" r="3" transform="matrix(1 0 0 -1 280 34)" fill="#868686" fill-opacity="0.9"/>
<circle cx="3" cy="3" r="3" transform="matrix(1 0 0 -1 280 48)" fill="#868686" fill-opacity="0.9"/>
<circle cx="3" cy="3" r="3" transform="matrix(1 0 0 -1 280 62)" fill="#868686" fill-opacity="0.9"/>
<circle cx="3" cy="3" r="3" transform="matrix(1 0 0 -1 280 76)" fill="#868686" fill-opacity="0.9"/>
<circle cx="3" cy="3" r="3" transform="matrix(1 0 0 -1 280 90)" fill="#868686" fill-opacity="0.9"/>
<circle cx="3" cy="3" r="3" transform="matrix(1 0 0 -1 280 104)" fill="#868686" fill-opacity="0.9"/>
<circle cx="3" cy="3" r="3" transform="matrix(1 0 0 -1 280 118)" fill="#868686" fill-opacity="0.9"/>
<circle cx="3" cy="3" r="3" transform="matrix(1 0 0 -1 280 132)" fill="#868686" fill-opacity="0.9"/>
<circle cx="3" cy="3" r="3" transform="matrix(1 0 0 -1 280 146)" fill="#868686" fill-opacity="0.9"/>
<circle cx="3" cy="3" r="3" transform="matrix(1 0 0 -1 280 160)" fill="#868686" fill-opacity="0.9"/>
<circle cx="3" cy="3" r="3" transform="matrix(1 0 0 -1 280 174)" fill="#868686" fill-opacity="0.9"/>
<circle cx="3" cy="3" r="3" transform="matrix(1 0 0 -1 280 188)" fill="#868686" fill-opacity="0.9"/>
<circle cx="3" cy="3" r="3" transform="matrix(1 0 0 -1 280 202)" fill="#868686" fill-opacity="0.9"/>
<circle cx="3" cy="3" r="3" transform="matrix(1 0 0 -1 294 6)" fill="#868686" fill-opacity="0.9"/>
<circle cx="3" cy="3" r="3" transform="matrix(1 0 0 -1 294 20)" fill="#868686" fill-opacity="0.9"/>
<circle cx="3" cy="3" r="3" transform="matrix(1 0 0 -1 294 34)" fill="#868686" fill-opacity="0.9"/>
<circle cx="3" cy="3" r="3" transform="matrix(1 0 0 -1 294 48)" fill="#868686" fill-opacity="0.9"/>
<circle cx="3" cy="3" r="3" transform="matrix(1 0 0 -1 294 62)" fill="#868686" fill-opacity="0.9"/>
<circle cx="3" cy="3" r="3" transform="matrix(1 0 0 -1 294 76)" fill="#868686" fill-opacity="0.9"/>
<circle cx="3" cy="3" r="3" transform="matrix(1 0 0 -1 294 90)" fill="#868686" fill-opacity="0.9"/>
<circle cx="3" cy="3" r="3" transform="matrix(1 0 0 -1 294 104)" fill="#868686" fill-opacity="0.9"/>
<circle cx="3" cy="3" r="3" transform="matrix(1 0 0 -1 294 118)" fill="#868686" fill-opacity="0.9"/>
<circle cx="3" cy="3" r="3" transform="matrix(1 0 0 -1 294 132)" fill="#868686" fill-opacity="0.9"/>
<circle cx="3" cy="3" r="3" transform="matrix(1 0 0 -1 294 146)" fill="#868686" fill-opacity="0.9"/>
<circle cx="3" cy="3" r="3" transform="matrix(1 0 0 -1 294 160)" fill="#868686" fill-opacity="0.9"/>
<circle cx="3" cy="3" r="3" transform="matrix(1 0 0 -1 294 174)" fill="#868686" fill-opacity="0.9"/>
<circle cx="3" cy="3" r="3" transform="matrix(1 0 0 -1 294 188)" fill="#868686" fill-opacity="0.9"/>
<circle cx="3" cy="3" r="3" transform="matrix(1 0 0 -1 294 202)" fill="#868686" fill-opacity="0.9"/>
<circle cx="3" cy="3" r="3" transform="matrix(1 0 0 -1 308 6)" fill="#868686" fill-opacity="0.9"/>
<circle cx="3" cy="3" r="3" transform="matrix(1 0 0 -1 308 20)" fill="#868686" fill-opacity="0.9"/>
<circle cx="3" cy="3" r="3" transform="matrix(1 0 0 -1 308 34)" fill="#868686" fill-opacity="0.9"/>
<circle cx="3" cy="3" r="3" transform="matrix(1 0 0 -1 308 48)" fill="#868686" fill-opacity="0.9"/>
<circle cx="3" cy="3" r="3" transform="matrix(1 0 0 -1 308 62)" fill="#868686" fill-opacity="0.9"/>
<circle cx="3" cy="3" r="3" transform="matrix(1 0 0 -1 308 76)" fill="#868686" fill-opacity="0.9"/>
<circle cx="3" cy="3" r="3" transform="matrix(1 0 0 -1 308 90)" fill="#868686" fill-opacity="0.9"/>
<circle cx="3" cy="3" r="3" transform="matrix(1 0 0 -1 308 104)" fill="#868686" fill-opacity="0.9"/>
<circle cx="3" cy="3" r="3" transform="matrix(1 0 0 -1 308 118)" fill="#868686" fill-opacity="0.9"/>
<circle cx="3" cy="3" r="3" transform="matrix(1 0 0 -1 308 132)" fill="#868686" fill-opacity="0.9"/>
<circle cx="3" cy="3" r="3" transform="matrix(1 0 0 -1 308 146)" fill="#868686" fill-opacity="0.9"/>
<circle cx="3" cy="3" r="3" transform="matrix(1 0 0 -1 308 160)" fill="#868686" fill-opacity="0.9"/>
<circle cx="3" cy="3" r="3" transform="matrix(1 0 0 -1 308 174)" fill="#868686" fill-opacity="0.9"/>
<circle cx="3" cy="3" r="3" transform="matrix(1 0 0 -1 308 188)" fill="#868686" fill-opacity="0.9"/>
<circle cx="3" cy="3" r="3" transform="matrix(1 0 0 -1 308 202)" fill="#868686" fill-opacity="0.9"/>
<circle cx="3" cy="3" r="3" transform="matrix(1 0 0 -1 322 6)" fill="#868686" fill-opacity="0.9"/>
<circle cx="3" cy="3" r="3" transform="matrix(1 0 0 -1 322 20)" fill="#868686" fill-opacity="0.9"/>
<circle cx="3" cy="3" r="3" transform="matrix(1 0 0 -1 322 34)" fill="#868686" fill-opacity="0.9"/>
<circle cx="3" cy="3" r="3" transform="matrix(1 0 0 -1 322 48)" fill="#868686" fill-opacity="0.9"/>
<circle cx="3" cy="3" r="3" transform="matrix(1 0 0 -1 322 62)" fill="#868686" fill-opacity="0.9"/>
<circle cx="3" cy="3" r="3" transform="matrix(1 0 0 -1 322 76)" fill="#868686" fill-opacity="0.9"/>
<circle cx="3" cy="3" r="3" transform="matrix(1 0 0 -1 322 90)" fill="#868686" fill-opacity="0.9"/>
<circle cx="3" cy="3" r="3" transform="matrix(1 0 0 -1 322 104)" fill="#868686" fill-opacity="0.9"/>
<circle cx="3" cy="3" r="3" transform="matrix(1 0 0 -1 322 118)" fill="#868686" fill-opacity="0.9"/>
<circle cx="3" cy="3" r="3" transform="matrix(1 0 0 -1 322 132)" fill="#868686" fill-opacity="0.9"/>
<circle cx="3" cy="3" r="3" transform="matrix(1 0 0 -1 322 146)" fill="#868686" fill-opacity="0.9"/>
<circle cx="3" cy="3" r="3" transform="matrix(1 0 0 -1 322 160)" fill="#868686" fill-opacity="0.9"/>
<circle cx="3" cy="3" r="3" transform="matrix(1 0 0 -1 322 174)" fill="#868686" fill-opacity="0.9"/>
<circle cx="3" cy="3" r="3" transform="matrix(1 0 0 -1 322 188)" fill="#868686" fill-opacity="0.9"/>
<circle cx="3" cy="3" r="3" transform="matrix(1 0 0 -1 322 202)" fill="#868686" fill-opacity="0.9"/>
<circle cx="3" cy="3" r="3" transform="matrix(1 0 0 -1 336 6)" fill="#868686" fill-opacity="0.9"/>
<circle cx="3" cy="3" r="3" transform="matrix(1 0 0 -1 336 20)" fill="#868686" fill-opacity="0.9"/>
<circle cx="3" cy="3" r="3" transform="matrix(1 0 0 -1 336 34)" fill="#868686" fill-opacity="0.9"/>
<circle cx="3" cy="3" r="3" transform="matrix(1 0 0 -1 336 48)" fill="#868686" fill-opacity="0.9"/>
<circle cx="3" cy="3" r="3" transform="matrix(1 0 0 -1 336 62)" fill="#868686" fill-opacity="0.9"/>
<circle cx="3" cy="3" r="3" transform="matrix(1 0 0 -1 336 76)" fill="#868686" fill-opacity="0.9"/>
<circle cx="3" cy="3" r="3" transform="matrix(1 0 0 -1 336 90)" fill="#868686" fill-opacity="0.9"/>
<circle cx="3" cy="3" r="3" transform="matrix(1 0 0 -1 336 104)" fill="#868686" fill-opacity="0.9"/>
<circle cx="3" cy="3" r="3" transform="matrix(1 0 0 -1 336 118)" fill="#868686" fill-opacity="0.9"/>
<circle cx="3" cy="3" r="3" transform="matrix(1 0 0 -1 336 132)" fill="#868686" fill-opacity="0.9"/>
<circle cx="3" cy="3" r="3" transform="matrix(1 0 0 -1 336 146)" fill="#868686" fill-opacity="0.9"/>
<circle cx="3" cy="3" r="3" transform="matrix(1 0 0 -1 336 160)" fill="#868686" fill-opacity="0.9"/>
<circle cx="3" cy="3" r="3" transform="matrix(1 0 0 -1 336 174)" fill="#868686" fill-opacity="0.9"/>
<circle cx="3" cy="3" r="3" transform="matrix(1 0 0 -1 336 188)" fill="#868686" fill-opacity="0.9"/>
<circle cx="3" cy="3" r="3" transform="matrix(1 0 0 -1 336 202)" fill="#868686" fill-opacity="0.9"/>
<circle cx="3" cy="3" r="3" transform="matrix(1 0 0 -1 350 6)" fill="#868686" fill-opacity="0.9"/>
<circle cx="3" cy="3" r="3" transform="matrix(1 0 0 -1 350 20)" fill="#868686" fill-opacity="0.9"/>
<circle cx="3" cy="3" r="3" transform="matrix(1 0 0 -1 350 34)" fill="#868686" fill-opacity="0.9"/>
<circle cx="3" cy="3" r="3" transform="matrix(1 0 0 -1 350 48)" fill="#868686" fill-opacity="0.9"/>
<circle cx="3" cy="3" r="3" transform="matrix(1 0 0 -1 350 62)" fill="#868686" fill-opacity="0.9"/>
<circle cx="3" cy="3" r="3" transform="matrix(1 0 0 -1 350 76)" fill="#868686" fill-opacity="0.9"/>
<circle cx="3" cy="3" r="3" transform="matrix(1 0 0 -1 350 90)" fill="#868686" fill-opacity="0.9"/>
<circle cx="3" cy="3" r="3" transform="matrix(1 0 0 -1 350 104)" fill="#868686" fill-opacity="0.9"/>
<circle cx="3" cy="3" r="3" transform="matrix(1 0 0 -1 350 118)" fill="#868686" fill-opacity="0.9"/>
<circle cx="3" cy="3" r="3" transform="matrix(1 0 0 -1 350 132)" fill="#868686" fill-opacity="0.9"/>
<circle cx="3" cy="3" r="3" transform="matrix(1 0 0 -1 350 146)" fill="#868686" fill-opacity="0.9"/>
<circle cx="3" cy="3" r="3" transform="matrix(1 0 0 -1 350 160)" fill="#868686" fill-opacity="0.9"/>
<circle cx="3" cy="3" r="3" transform="matrix(1 0 0 -1 350 174)" fill="#868686" fill-opacity="0.9"/>
<circle cx="3" cy="3" r="3" transform="matrix(1 0 0 -1 350 188)" fill="#868686" fill-opacity="0.9"/>
<circle cx="3" cy="3" r="3" transform="matrix(1 0 0 -1 350 202)" fill="#868686" fill-opacity="0.9"/>
<circle cx="3" cy="3" r="3" transform="matrix(1 0 0 -1 364 6)" fill="#868686" fill-opacity="0.9"/>
<circle cx="3" cy="3" r="3" transform="matrix(1 0 0 -1 364 20)" fill="#868686" fill-opacity="0.9"/>
<circle cx="3" cy="3" r="3" transform="matrix(1 0 0 -1 364 34)" fill="#868686" fill-opacity="0.9"/>
<circle cx="3" cy="3" r="3" transform="matrix(1 0 0 -1 364 48)" fill="#868686" fill-opacity="0.9"/>
<circle cx="3" cy="3" r="3" transform="matrix(1 0 0 -1 364 62)" fill="#868686" fill-opacity="0.9"/>
<circle cx="3" cy="3" r="3" transform="matrix(1 0 0 -1 364 76)" fill="#868686" fill-opacity="0.9"/>
<circle cx="3" cy="3" r="3" transform="matrix(1 0 0 -1 364 90)" fill="#868686" fill-opacity="0.9"/>
<circle cx="3" cy="3" r="3" transform="matrix(1 0 0 -1 364 104)" fill="#868686" fill-opacity="0.9"/>
<circle cx="3" cy="3" r="3" transform="matrix(1 0 0 -1 364 118)" fill="#868686" fill-opacity="0.9"/>
<circle cx="3" cy="3" r="3" transform="matrix(1 0 0 -1 364 132)" fill="#868686" fill-opacity="0.9"/>
<circle cx="3" cy="3" r="3" transform="matrix(1 0 0 -1 364 146)" fill="#868686" fill-opacity="0.9"/>
<circle cx="3" cy="3" r="3" transform="matrix(1 0 0 -1 364 160)" fill="#868686" fill-opacity="0.9"/>
<circle cx="3" cy="3" r="3" transform="matrix(1 0 0 -1 364 174)" fill="#868686" fill-opacity="0.9"/>
<circle cx="3" cy="3" r="3" transform="matrix(1 0 0 -1 364 188)" fill="#868686" fill-opacity="0.9"/>
<circle cx="3" cy="3" r="3" transform="matrix(1 0 0 -1 364 202)" fill="#868686" fill-opacity="0.9"/>
</g>
</svg>
