<svg width="122" height="122" viewBox="0 0 122 122" fill="none" xmlns="http://www.w3.org/2000/svg">
<ellipse cx="62" cy="57.1351" rx="60" ry="55.1351" fill="#F79E1B"/>
<path d="M21.6762 40.9188C21.6762 42.9588 19.8361 44.8242 17.2938 44.8242C14.7516 44.8242 12.9115 42.9588 12.9115 40.9188C12.9115 38.8788 14.7516 37.0134 17.2938 37.0134C19.8361 37.0134 21.6762 38.8788 21.6762 40.9188Z" stroke="#313741" stroke-width="3"/>
<path d="M110.823 45.2432L110.823 57.1351M104.353 51.1891H117.294" stroke="#313741" stroke-width="3" stroke-linecap="round"/>
<g clip-path="url(#clip0_1_1783)">
<path d="M111.872 98.9026C110.58 91.8665 105.139 86.093 97.673 83.8367L81.1006 78.8282V76.5946H77.2484V79.8725L74.3727 90.2983L66.5931 81.8337H60.9361L53.1565 90.2983L50.2827 79.8725V76.5946H46.4304V78.8282L29.8581 83.8367C22.3944 86.093 16.9531 91.8665 15.6587 98.9026L11.4116 122H116.118L111.872 98.9026ZM29.2783 118.507H15.9611L19.459 99.4772C20.4143 94.2817 24.1491 89.9473 29.3573 87.7905L31.0118 102.79L29.2783 118.507ZM94.3812 118.507H73.4096C73.4212 117.281 73.4424 116.103 73.4751 115.015H90.7312V111.522H73.6331C73.7082 110.238 73.7949 109.077 73.8912 108.029H90.7312V104.536H74.2879C74.7483 101.239 75.2163 99.8666 75.226 99.8421L73.3961 99.2973L71.5683 98.7454C71.4893 98.962 69.6961 104.051 69.5574 118.507H65.6917V90.5655H61.8394V118.507H57.9737C57.835 104.051 56.0418 98.962 55.9628 98.7454L52.3051 99.8421C52.3147 99.8683 52.7828 101.241 53.2431 104.536H36.7998V108.029H53.638C53.7343 109.077 53.821 110.238 53.8961 111.522H36.7998V115.015H54.056C54.0906 116.103 54.1099 117.281 54.1214 118.507H33.1498L34.8833 102.79L33.092 86.5401L46.9929 82.3401L51.2612 97.8181L62.7408 85.3264H64.7883L76.2699 97.8181L80.5382 82.3401L94.439 86.5401L92.6477 102.79L94.3812 118.507ZM98.2527 118.507L96.5192 102.79L98.1738 87.7905C103.382 89.9473 107.119 94.28 108.072 99.4772L111.57 118.507H98.2527Z" fill="#313741"/>
<path d="M33.1868 45.8743C31.8332 47.3838 30.9868 49.2841 30.9868 51.3791C30.9868 55.8776 34.7466 59.5521 39.5514 60.0464C40.5348 63.1231 42.351 65.9439 44.9116 68.272L52.4312 75.1074C54.2513 76.7623 56.673 77.6757 59.247 77.6757H68.2841C70.8581 77.6757 73.2798 76.7623 75.0999 75.1074L82.6195 68.272C85.18 65.9439 86.9963 63.1214 87.9796 60.0464C92.7826 59.5521 96.5424 55.8776 96.5424 51.3791C96.5424 49.2841 95.6959 47.3838 94.3424 45.8743C96.7217 45.2222 98.4705 43.2342 98.4705 40.8605C98.4705 37.9608 95.8752 35.6011 92.6861 35.6011H92.4124C90.8757 25.2526 82.5694 16.594 71.477 13.7978V12.8108H56.0522V13.7978C44.9598 16.594 36.6516 25.2543 35.1168 35.6011H34.843C31.6539 35.6011 29.0587 37.9608 29.0587 40.8605C29.0587 43.2342 30.8075 45.2222 33.1868 45.8743ZM34.843 51.3791C34.843 49.0965 36.4607 47.1681 38.6992 46.4423V54.6364C38.6992 55.2096 38.7358 55.7776 38.7898 56.3421C36.505 55.6391 34.843 53.6914 34.843 51.3791ZM84.9718 54.6364C84.9737 58.8508 83.169 62.8128 79.8912 65.7931L72.3716 72.6285C71.2958 73.6084 69.8053 74.1694 68.2821 74.1694H59.2451C57.7219 74.1694 56.2334 73.6084 55.1556 72.6285L47.636 65.7931C44.3582 62.8128 42.5535 58.8508 42.5535 54.6364V46.1198H84.9718V54.6364ZM88.7393 56.3404C88.7933 55.7776 88.8299 55.2096 88.8299 54.6364V46.4423C91.0685 47.1681 92.6861 49.0965 92.6861 51.3791C92.6861 53.6914 91.0241 55.6391 88.7393 56.3404ZM56.0522 17.4495V32.0949H59.9084V16.317H67.6208V32.0949H71.477V17.4495C80.4138 20.0844 87.0831 27.1599 88.533 35.6011H38.9961C40.4461 27.1599 47.1154 20.0844 56.0522 17.4495ZM34.843 39.1074H92.6861C93.7485 39.1074 94.6143 39.8945 94.6143 40.8605C94.6143 41.8264 93.7485 42.6136 92.6861 42.6136H34.843C33.7806 42.6136 32.9149 41.8264 32.9149 40.8605C32.9149 39.8945 33.7806 39.1074 34.843 39.1074Z" fill="#313741"/>
<path d="M78.4705 29.027H74.941V32.2703H78.4705V29.027Z" fill="#313741"/>
<path d="M51.4116 29.027H47.8822V32.2703H51.4116V29.027Z" fill="#313741"/>
</g>
<path d="M7.88235 2L7.88235 12.8108M2 7.40541H13.7647" stroke="#313741" stroke-width="3" stroke-linecap="round"/>
<defs>
<clipPath id="clip0_1_1783">
<path d="M10.2352 12.8108H106.118C111.64 12.8108 116.118 17.2879 116.118 22.8108V112C116.118 117.523 111.64 122 106.118 122H10.2352V12.8108Z" fill="white"/>
</clipPath>
</defs>
</svg>
