<svg width="59" height="59" viewBox="0 0 59 59" fill="none" xmlns="http://www.w3.org/2000/svg">
<g clip-path="url(#clip0_1_1336)">
<path d="M29.4996 18.2598C23.3008 18.2598 18.258 23.3026 18.258 29.501C18.258 35.6998 23.3008 40.7426 29.4996 40.7426C35.698 40.7426 40.7408 35.6998 40.7408 29.501C40.7408 23.3026 35.698 18.2598 29.4996 18.2598ZM36.1738 27.384L28.1204 35.4373C27.7824 35.7754 27.339 35.9446 26.896 35.9446C26.4531 35.9446 26.0102 35.7758 25.6721 35.4373L22.5946 32.3598C21.9185 31.6841 21.9185 30.588 22.5946 29.9119C23.2702 29.2358 24.3663 29.2358 25.0424 29.9119L26.896 31.7656L33.7259 24.9362C34.4016 24.2601 35.4977 24.2601 36.1738 24.9362C36.8499 25.6118 36.8499 26.7079 36.1738 27.384Z" fill="#F2994A"/>
<path d="M54.5621 16.0082L54.5603 15.9623C54.5346 15.3956 54.5175 14.796 54.5071 14.1289C54.459 10.8758 51.873 8.18488 48.6194 8.00303C41.8359 7.62447 36.5882 5.41251 32.1045 1.04217L32.0662 1.00571C30.6037 -0.335237 28.3976 -0.335237 26.9347 1.00571L26.8964 1.04217C22.4127 5.41251 17.165 7.62447 10.3815 8.00348C7.12839 8.18488 4.54192 10.8758 4.49376 14.1293C4.48386 14.7919 4.4663 15.3915 4.44065 15.9623L4.43794 16.069C4.30606 22.9862 4.14221 31.5949 7.02216 39.4088C8.60573 43.7058 11.004 47.441 14.15 50.5113C17.7331 54.008 22.4262 56.7839 28.0987 58.7618C28.2833 58.8262 28.475 58.8784 28.6704 58.9176C28.9459 58.9725 29.2232 58.9999 29.5004 58.9999C29.7777 58.9999 30.0555 58.9725 30.3305 58.9176C30.5259 58.8784 30.719 58.8257 30.9044 58.7609C36.5702 56.7794 41.2584 54.0021 44.8383 50.5059C47.9829 47.4347 50.3812 43.6986 51.9661 39.4007C54.8569 31.5634 54.6935 22.9384 54.5621 16.0082ZM29.4995 44.2045C21.3918 44.2045 14.796 37.6087 14.796 29.5009C14.796 21.3931 21.3918 14.7973 29.4995 14.7973C37.6069 14.7973 44.2031 21.3931 44.2031 29.5009C44.2031 37.6087 37.6069 44.2045 29.4995 44.2045Z" fill="#F2994A"/>
</g>
<defs>
<clipPath id="clip0_1_1336">
<rect width="59" height="59" fill="white"/>
</clipPath>
</defs>
</svg>
