<svg width="63" height="63" viewBox="0 0 63 63" fill="none" xmlns="http://www.w3.org/2000/svg">
<path d="M31.5 29.5312C36.5968 29.5312 40.7285 25.3995 40.7285 20.3027C40.7285 15.206 36.5968 11.0742 31.5 11.0742C26.4032 11.0742 22.2715 15.206 22.2715 20.3027C22.2715 25.3995 26.4032 29.5312 31.5 29.5312Z" fill="#F2994A"/>
<path d="M31.5 0C21.5199 0 11.1973 7.59371 11.1973 20.3027C11.1973 31.9123 29.3119 54.0274 30.0815 54.9538C30.4329 55.3738 30.9521 55.6172 31.5 55.6172C32.0479 55.6172 32.5671 55.3738 32.9185 54.9538C33.6881 54.0274 51.8027 31.9123 51.8027 20.3027C51.8027 9.10781 42.6949 0 31.5 0ZM31.5 33.2227C24.3767 33.2227 18.5801 27.426 18.5801 20.3027C18.5801 13.1794 24.3767 7.38281 31.5 7.38281C38.6233 7.38281 44.4199 13.1794 44.4199 20.3027C44.4199 27.426 38.6233 33.2227 31.5 33.2227Z" fill="#F2994A"/>
<path d="M43.9384 46.4885C40.3797 51.6409 37.0526 55.7547 35.7574 57.3133C34.6939 58.584 33.1438 59.3087 31.5 59.3087C29.8562 59.3087 28.3061 58.584 27.2498 57.3223C25.9516 55.7599 22.6223 51.6431 19.0618 46.4885C14.2839 48.177 11.1973 50.8075 11.1973 53.7716C11.1973 58.8682 20.2872 63.0001 31.5 63.0001C42.7128 63.0001 51.8027 58.8682 51.8027 53.7716C51.8027 50.8076 48.7162 48.177 43.9384 46.4885Z" fill="#F2994A"/>
</svg>
