<svg width="27" height="16" viewBox="0 0 27 16" fill="none" xmlns="http://www.w3.org/2000/svg">
<path d="M14.5428 15.4201L26.549 3.4137C26.8269 3.13601 26.98 2.76531 26.98 2.37005C26.98 1.97478 26.8269 1.60409 26.549 1.32639L25.665 0.442204C25.089 -0.133143 24.1528 -0.133143 23.5777 0.442204L13.4956 10.5243L3.40236 0.431017C3.12445 0.153324 2.75397 0 2.35893 0C1.96345 0 1.59297 0.153324 1.31484 0.431017L0.431089 1.31521C0.153177 1.59312 7.24792e-05 1.9636 7.24792e-05 2.35886C7.24792e-05 2.75412 0.153177 3.12482 0.431089 3.40251L12.4482 15.4201C12.727 15.6985 13.0993 15.8513 13.495 15.8505C13.8922 15.8513 14.2642 15.6985 14.5428 15.4201Z" fill="#F2994A"/>
</svg>
