<svg width="67" height="67" viewBox="0 0 67 67" fill="none" xmlns="http://www.w3.org/2000/svg">
<g clip-path="url(#clip0_1_1334)">
<path d="M62.7174 32.1963C62.5071 32.1522 62.3085 32.1106 62.1319 32.0647C60.1298 31.5441 59.2161 31.2587 58.5404 29.9542L55.9812 24.773C55.1587 23.1852 53.035 21.8933 51.247 21.8933H46.6908V15.9103C46.6908 14.836 45.8167 13.9619 44.7421 13.9619L13.0081 13.9938C11.9625 13.9938 11.1741 14.8247 11.1741 15.9266V17.695H3.04462C1.36587 17.6952 0 19.0609 0 20.7398C0 22.4187 1.36587 23.7844 3.04462 23.7844H11.1739V26.7026H5.85139C4.17263 26.7026 2.80677 28.0685 2.80677 29.7472C2.80677 31.426 4.17263 32.7919 5.85139 32.7919H11.1739V35.71H8.65816C6.9794 35.71 5.61354 37.0759 5.61354 38.7546C5.61354 40.4334 6.9794 41.7993 8.65816 41.7993H11.1739V44.8514C11.1739 45.9257 12.048 46.7998 13.1222 46.7998H16.4233C16.9374 50.3232 19.9784 53.0379 23.6426 53.0379C27.307 53.0379 30.3482 50.3232 30.8624 46.7998H44.2218C44.2912 46.7998 44.3623 46.7951 44.4333 46.7905C44.9435 50.3184 47.9864 53.0379 51.6537 53.0379C55.3182 53.0379 58.3594 50.3232 58.8736 46.7998H63.6151C65.4816 46.7998 67.0001 45.2814 67.0001 43.415V37.6717C67 33.0949 64.4227 32.5541 62.7174 32.1963ZM51.6537 43.0894C53.1168 43.0894 54.3071 44.2792 54.3071 45.7419C54.3071 47.2045 53.1168 48.3944 51.6537 48.3944C50.1913 48.3944 49.0014 47.2045 49.0014 45.7419C49.0014 44.2792 50.1913 43.0894 51.6537 43.0894ZM46.6908 31.7838V24.7191H50.1726C51.5108 24.7191 53.1616 25.7232 53.7743 26.9056L56.0516 31.5162C56.0999 31.6095 56.15 31.6985 56.202 31.7836H46.6908V31.7838ZM26.2959 45.7417C26.2959 47.2042 25.1056 48.3942 23.6426 48.3942C22.1801 48.3942 20.9904 47.2044 20.9904 45.7417C20.9904 44.2791 22.1801 43.0892 23.6426 43.0892C25.1056 43.0894 26.2959 44.2792 26.2959 45.7417Z" fill="#F2994A"/>
</g>
<defs>
<clipPath id="clip0_1_1334">
<rect width="67" height="67" fill="white"/>
</clipPath>
</defs>
</svg>
